<?xml version="1.0" encoding="UTF-8" standalone="no"?>
<!-- Created with Inkscape (http://www.inkscape.org/) -->

<svg
   xmlns:dc="http://purl.org/dc/elements/1.1/"
   xmlns:cc="http://creativecommons.org/ns#"
   xmlns:rdf="http://www.w3.org/1999/02/22-rdf-syntax-ns#"
   xmlns:svg="http://www.w3.org/2000/svg"
   xmlns="http://www.w3.org/2000/svg"
   xmlns:sodipodi="http://sodipodi.sourceforge.net/DTD/sodipodi-0.dtd"
   xmlns:inkscape="http://www.inkscape.org/namespaces/inkscape"
   version="1.2"
   width="447"
   height="65"
   id="svg2"
   inkscape:version="0.48.4 r9939"
   sodipodi:docname="logofin.svg">
  <sodipodi:namedview
     pagecolor="#ffffff"
     bordercolor="#666666"
     borderopacity="1"
     objecttolerance="10"
     gridtolerance="10"
     guidetolerance="10"
     inkscape:pageopacity="0"
     inkscape:pageshadow="2"
     inkscape:window-width="1317"
     inkscape:window-height="744"
     id="namedview3105"
     showgrid="false"
     inkscape:zoom="0.68680089"
     inkscape:cx="-32.760586"
     inkscape:cy="32.5"
     inkscape:window-x="49"
     inkscape:window-y="24"
     inkscape:window-maximized="1"
     inkscape:current-layer="svg2" />
  <defs
     id="defs4">
    <clipPath
       id="clipPath3798">
      <rect
         width="12.834098"
         height="31.917562"
         rx="5.7908173"
         ry="4.2022343"
         x="72.263702"
         y="315.45761"
         id="rect3800"
         style="fill:#000000;fill-opacity:1;fill-rule:nonzero;stroke:none" />
    </clipPath>
  </defs>
  <metadata
     id="metadata7">
    <rdf:RDF>
      <cc:Work
         rdf:about="">
        <dc:format>image/svg+xml</dc:format>
        <dc:type
           rdf:resource="http://purl.org/dc/dcmitype/StillImage" />
        <dc:title></dc:title>
      </cc:Work>
    </rdf:RDF>
  </metadata>
  <g
     style="font-size:40px;font-style:normal;font-variant:normal;font-weight:bold;font-stretch:normal;line-height:125%;letter-spacing:-6.72614527px;word-spacing:0px;fill:#3aa6d0;fill-opacity:1;stroke:none;font-family:DINPro-Bold;-inkscape-font-specification:DINPro-Bold Bold"
     id="flowRoot2993"
     transform="matrix(2.2301035,0,0,2.2301035,134.80619,-704.72838)">
    <path
       inkscape:connector-curvature="0"
       style="font-weight:300;fill:#3aa6d0;font-family:DINPro-Light;-inkscape-font-specification:DINPro-Light Light"
       id="path3838"
       d="m 69.5987,344.88491 2.039974,0 0,-19.27975 -2.039974,0 z m -0.239997,-25.95966 2.519968,0 0,-2.51997 -2.519968,0 z" />
    <path
       inkscape:connector-curvature="0"
       style="letter-spacing:-6.27773571px"
       id="path3840"
       d="m 86.358003,342.16495 -1.399982,-1.27999 c -0.796672,0.88916 -1.573328,1.52082 -2.32997,1.89498 -0.756671,0.37416 -1.633325,0.55583 -2.629966,0.54499 -1.103329,8.4e-4 -2.086649,-0.21083 -2.949963,-0.63499 -0.863329,-0.42416 -1.586653,-1.06582 -2.169971,-1.92498 -0.475,-0.67998 -0.814995,-1.44997 -1.019988,-2.30997 -0.205002,-0.85998 -0.305,-1.92996 -0.299995,-3.20996 -0.005,-1.27997 0.09499,-2.34995 0.299995,-3.20995 0.204993,-0.85998 0.544988,-1.62997 1.019988,-2.30997 0.583318,-0.85914 1.306642,-1.5008 2.169971,-1.92498 0.863314,-0.42414 1.846634,-0.63581 2.949963,-0.63499 0.996642,-0.0133 1.873297,0.16335 2.629967,0.52999 0.756642,0.36668 1.533298,1.00334 2.329969,1.90998 l 1.399982,-1.27999 c -0.992504,-1.1208 -1.97749,-1.89912 -2.954962,-2.33497 -0.977501,-0.43581 -2.112485,-0.64414 -3.404956,-0.62499 -2.663308,0.0292 -4.736613,0.91084 -6.21992,2.64497 -1.483318,1.73416 -2.236641,4.14579 -2.259971,7.2349 0.02333,3.08914 0.776653,5.50077 2.259971,7.23491 1.483307,1.73415 3.556611,2.6158 6.21992,2.64497 1.292471,0.0192 2.427455,-0.18917 3.404956,-0.62499 0.977472,-0.43583 1.962458,-1.21415 2.954962,-2.33497 z" />
    <path
       inkscape:connector-curvature="0"
       style="letter-spacing:-6.27773571px"
       id="path3842"
       d="m 98.847779,344.88491 2.039971,0 0,-12.31984 c -0.0192,-2.25996 -0.65084,-4.01993 -1.894973,-5.27993 -1.244167,-1.25997 -2.985809,-1.89996 -5.224933,-1.91998 -2.353312,2e-5 -4.24662,0.84001 -5.679927,2.51997 l 0,-11.47985 -2.039973,0 0,28.47963 2.039973,0 0,-11.95985 c 0.0092,-1.84996 0.480821,-3.26994 1.414982,-4.25994 0.934146,-0.98997 2.275794,-1.48996 4.024948,-1.49998 1.744131,0.008 3.065779,0.50251 3.964949,1.48498 0.899139,0.9825 1.350799,2.40748 1.354983,4.27494 z" />
    <path
       inkscape:connector-curvature="0"
       style="letter-spacing:-6.27773571px"
       id="path3844"
       d="m 113.43381,344.88491 2.03998,0 0,-13.19983 c 0.008,-2.03079 -0.59835,-3.5891 -1.81998,-4.67494 -1.22167,-1.0858 -3.10831,-1.63413 -5.65993,-1.64498 -1.56332,-0.0191 -2.88663,0.18919 -3.96995,0.625 -1.08332,0.43584 -2.02664,1.21416 -2.82996,2.33496 l 1.47998,1.27999 c 0.59416,-0.87164 1.29581,-1.4983 2.10497,-1.87998 0.80915,-0.38164 1.88081,-0.56831 3.21496,-0.55999 1.95913,0.004 3.36078,0.40584 4.20495,1.20498 0.84414,0.79918 1.2558,1.97083 1.23498,3.51496 l 0,2.15997 -6.23992,0 c -2.11748,0.0117 -3.76245,0.49834 -4.93493,1.45998 -1.17249,0.96166 -1.76748,2.32831 -1.78498,4.09995 8.3e-4,0.72916 0.11916,1.42082 0.355,2.07497 0.23582,0.65416 0.58415,1.21582 1.04498,1.68498 0.59916,0.63333 1.34081,1.08665 2.22497,1.35998 0.88415,0.27333 2.0358,0.40666 3.45496,0.4 1.33247,0.0125 2.44746,-0.1425 3.34496,-0.465 0.89747,-0.32249 1.74246,-0.88748 2.53496,-1.69497 z m 0,-9.19988 0,2.47997 c -10e-6,1.76665 -0.36001,2.9933 -1.07998,3.67995 -0.70251,0.63916 -1.4575,1.05082 -2.26497,1.23498 -0.80751,0.18417 -1.65249,0.26584 -2.53497,0.245 -1.74999,0.003 -3.02997,-0.30333 -3.83995,-0.91999 -0.81,-0.61665 -1.20999,-1.56331 -1.19999,-2.83996 0,-2.59329 1.63998,-3.88661 4.91994,-3.87995 z" />
    <path
       inkscape:connector-curvature="0"
       style="letter-spacing:-6.27773571px"
       id="path3846"
       d="m 117.69371,335.68503 13.39983,0 0,-0.91999 c -0.0192,-2.98161 -0.70084,-5.28825 -2.04498,-6.91991 -1.34416,-1.63163 -3.2358,-2.45828 -5.67492,-2.47997 -2.43915,0.0217 -4.33079,0.88834 -5.67493,2.59997 -1.34415,1.71166 -2.02581,4.13829 -2.04497,7.2799 0.009,3.22914 0.71082,5.68077 2.10497,7.35491 1.39414,1.67415 3.42578,2.5158 6.09492,2.52497 1.56747,-8.4e-4 2.88245,-0.24917 3.94495,-0.74499 1.06247,-0.49583 2.06746,-1.23415 3.01496,-2.21497 l -1.51998,-1.19999 c -0.79667,0.81416 -1.60333,1.40582 -2.41997,1.77498 -0.81667,0.36916 -1.78332,0.55083 -2.89996,0.54499 -2.06415,-0.009 -3.6258,-0.66082 -4.68494,-1.95497 -1.05916,-1.29415 -1.59082,-3.17579 -1.59498,-5.64493 z m 11.35985,-1.63998 -11.35985,0 c 0.0533,-0.89664 0.12666,-1.5833 0.22,-2.05997 0.0933,-0.47665 0.24665,-1.00331 0.45999,-1.57998 0.43582,-1.02747 1.09415,-1.82246 1.97498,-2.38497 0.88081,-0.56248 1.88913,-0.84747 3.02496,-0.85499 1.1358,0.008 2.14412,0.29251 3.02496,0.85499 0.88081,0.56251 1.53913,1.3575 1.97497,2.38497 0.24832,0.54417 0.41165,1.06583 0.49,1.56498 0.0783,0.49917 0.14164,1.19083 0.18999,2.07497 z" />
    <path
       inkscape:connector-curvature="0"
       style="letter-spacing:-6.27773571px"
       id="path3848"
       d="m 135.99343,344.88491 1.75997,0 0,-1.79998 -1.39998,0 c -1.12082,0.003 -1.89915,-0.26249 -2.33497,-0.79499 -0.43583,-0.53249 -0.64416,-1.34747 -0.62499,-2.44496 l 0,-23.4397 -2.03997,0 0,23.4797 c -0.004,1.53831 0.37415,2.75163 1.13498,3.63995 0.76082,0.88832 1.92914,1.34165 3.50496,1.35998 z" />
  </g>
  <g
     style="font-size:40px;font-style:normal;font-variant:normal;font-weight:normal;font-stretch:normal;line-height:125%;letter-spacing:0px;word-spacing:0px;fill:#3aa6d0;fill-opacity:1;stroke:none;font-family:DINPro-Regular;-inkscape-font-specification:DINPro-Regular"
     id="flowRoot3001"
     clip-path="url(#clipPath3798)"
     transform="matrix(2.2292251,0,0,2.2862197,100.21159,-724.08268)">
    <path
       inkscape:connector-curvature="0"
       style="letter-spacing:-4.484097px;fill:#3aa6d0;font-family:DINPro-Regular;-inkscape-font-specification:DINPro-Regular"
       id="path3835"
       d="m 84.798504,344.88491 0,-12.59984 c 0.0025,-1.1408 -0.162516,-2.16912 -0.494994,-3.08496 -0.332514,-0.9158 -0.847507,-1.71412 -1.544979,-2.39497 -0.602509,-0.60164 -1.3275,-1.0583 -2.174973,-1.36998 -0.847504,-0.31164 -1.80249,-0.46831 -2.864962,-0.46999 -1.104998,2e-5 -2.124984,0.20001 -3.059962,0.59999 -0.934995,0.40001 -1.754984,1.00001 -2.459967,1.79998 l 0,-2.15998 -2.879963,0 0,19.67975 2.879963,0 0,-12.11984 c 0.01833,-1.7233 0.461653,-3.02662 1.329982,-3.90995 0.868314,-0.88331 2.051631,-1.32664 3.549955,-1.32999 1.496634,8.6e-4 2.673284,0.43918 3.529954,1.31499 0.856639,0.87583 1.2933,2.18415 1.309983,3.92495 l 0,12.11984 z" />
  </g>
  <g
     style="font-size:40px;font-style:normal;font-variant:normal;font-weight:bold;font-stretch:normal;line-height:125%;letter-spacing:-4.48409700000000022px;word-spacing:0px;fill:#444444;fill-opacity:1;stroke:none;font-family:DINPro-Bold;-inkscape-font-specification:DINPro-Bold Bold"
     id="flowRoot2985"
     transform="matrix(2.2301035,0,0,2.2301035,-151.586,-705.29214)">
    <path
       inkscape:connector-curvature="0"
       style="fill:#444444;font-family:DINPro-Bold;-inkscape-font-specification:DINPro-Bold Bold;fill-opacity:1"
       id="path3819"
       d="m 86.078488,334.44505 c 0.04165,-1.59997 -0.05169,-3.18995 -0.279997,-4.76994 -0.22835,-1.57997 -0.841675,-2.90995 -1.839976,-3.98995 -0.591677,-0.58581 -1.328334,-1.04414 -2.209972,-1.37499 -0.88167,-0.3308 -1.838324,-0.49913 -2.869962,-0.50499 -1.052499,-0.008 -1.987486,0.14836 -2.804964,0.47 -0.817499,0.32168 -1.562489,0.85834 -2.234972,1.60998 l 0,-9.47988 -5.199933,0 0,28.47963 5.039936,0 0,-1.95997 c 0.709149,0.79165 1.480805,1.35831 2.31497,1.69997 0.834145,0.34167 1.795798,0.50833 2.884963,0.5 1.031639,-0.006 1.988293,-0.17417 2.869963,-0.505 0.881639,-0.33082 1.618295,-0.78915 2.209971,-1.37498 0.998302,-1.08165 1.611626,-2.4183 1.839976,-4.00995 0.22831,-1.59164 0.321643,-3.18828 0.279997,-4.78993 z m -5.199933,0 c 0.04832,1.73748 -0.148346,3.16246 -0.589993,4.27494 -0.441675,1.11249 -1.418328,1.68748 -2.929962,1.72498 -1.511658,-0.0375 -2.488311,-0.61249 -2.929963,-1.72498 -0.44167,-1.11248 -0.638333,-2.53746 -0.589992,-4.27494 -0.04834,-1.7358 0.148324,-3.15412 0.589993,-4.25495 0.441652,-1.1008 1.418305,-1.66913 2.929962,-1.70498 1.511634,0.0358 2.488287,0.60418 2.929962,1.70498 0.441646,1.10083 0.63831,2.51915 0.589993,4.25495 z" />
    <path
       inkscape:connector-curvature="0"
       style="fill:#444444;font-family:DINPro-Bold;-inkscape-font-specification:DINPro-Bold Bold;fill-opacity:1"
       id="path3821"
       d="m 101.81629,325.76516 c -0.7075,-0.71164 -1.45249,-1.2183 -2.234966,-1.51998 -0.782506,-0.30165 -1.677493,-0.44831 -2.684966,-0.44 -1.13583,0.0184 -2.164149,0.24169 -3.08496,0.66999 -0.920831,0.42835 -1.639154,0.95168 -2.154973,1.56998 l 0,-1.99997 -5.079934,0 0,20.83973 5.199933,0 0,-12.55984 c 0.03999,-1.31497 0.399986,-2.28495 1.079986,-2.90996 0.679981,-0.62498 1.439971,-0.93497 2.279971,-0.92999 0.62498,0.002 1.144972,0.10835 1.55998,0.32 0.414981,0.21168 0.814975,0.51834 1.199984,0.91999 z" />
    <path
       inkscape:connector-curvature="0"
       style="fill:#444444;font-family:DINPro-Bold;-inkscape-font-specification:DINPro-Bold Bold;fill-opacity:1"
       id="path3823"
       d="m 116.05532,344.88491 0,-13.71982 c -0.005,-2.44162 -0.75501,-4.27826 -2.24998,-5.50993 -1.49499,-1.23163 -3.70496,-1.84829 -6.62991,-1.84998 -1.70832,-0.02 -3.14163,0.18002 -4.29994,0.59999 -1.15833,0.42002 -2.23165,1.18001 -3.219962,2.27998 l 3.319952,3.23995 c 0.51416,-0.61414 1.06582,-1.0558 1.65498,-1.32498 0.58915,-0.26915 1.37081,-0.40081 2.34497,-0.39499 1.36914,-0.006 2.36079,0.25584 2.97496,0.78499 0.61415,0.52917 0.91581,1.36083 0.90499,2.49496 l 0,1.03999 -4.91993,0 c -2.41415,0.0442 -4.20579,0.63584 -5.37493,1.77498 -1.169159,1.13916 -1.750817,2.5608 -1.744982,4.26494 0.0017,0.9275 0.14833,1.79248 0.439995,2.59497 0.291661,0.80249 0.718321,1.49748 1.279987,2.08497 0.61665,0.61916 1.36331,1.08082 2.23997,1.38498 0.87665,0.30417 1.9033,0.45583 3.07996,0.455 1.17581,0.004 2.15413,-0.15417 2.93496,-0.475 0.78081,-0.32082 1.50913,-0.82915 2.18497,-1.52498 l 0,1.79998 z m -5.19994,-7.6799 c 0.003,0.6375 -0.0533,1.17249 -0.17,1.60498 -0.11667,0.4325 -0.31334,0.77749 -0.58999,1.03499 -0.44917,0.42666 -0.93083,0.70332 -1.44498,0.82999 -0.51417,0.12666 -1.12583,0.18333 -1.83497,0.16999 -1.0175,-0.01 -1.77249,-0.22999 -2.26498,-0.65999 -0.4925,-0.42999 -0.73749,-1.00998 -0.73499,-1.73998 0.004,-0.74581 0.25583,-1.32414 0.75499,-1.73497 0.49916,-0.41082 1.22081,-0.61915 2.16498,-0.625 l 4.11994,0 z" />
    <path
       inkscape:connector-curvature="0"
       style="fill:#444444;font-family:DINPro-Bold;-inkscape-font-specification:DINPro-Bold Bold;fill-opacity:1"
       id="path3825"
       d="m 134.45932,344.88491 0,-13.31983 c 0.0166,-1.13914 -0.12668,-2.20079 -0.42999,-3.18496 -0.30335,-0.98413 -0.86667,-1.89579 -1.68998,-2.73496 -0.58251,-0.58414 -1.2875,-1.0358 -2.11497,-1.35498 -0.82751,-0.31915 -1.76249,-0.48081 -2.80496,-0.485 -0.97167,2e-5 -1.90832,0.18002 -2.80997,0.53999 -0.90166,0.36002 -1.69832,0.90001 -2.38997,1.61998 l 0,-1.91997 -5.07993,0 0,20.83973 5.19993,0 0,-12.59984 c 0.0425,-1.4008 0.41749,-2.38912 1.12499,-2.96496 0.70748,-0.57581 1.49247,-0.85414 2.35497,-0.83499 0.86081,-0.0191 1.63913,0.25918 2.33497,0.83499 0.69581,0.57584 1.06413,1.56416 1.10498,2.96496 l 0,12.59984 z" />
    <path
       inkscape:connector-curvature="0"
       style="fill:#444444;font-family:DINPro-Bold;-inkscape-font-specification:DINPro-Bold Bold;fill-opacity:1"
       id="path3827"
       d="m 152.14586,344.88491 0,-28.47963 -5.19993,0 0,9.47988 c -0.67417,-0.75164 -1.42583,-1.2883 -2.25497,-1.60998 -0.82917,-0.32165 -1.77082,-0.47831 -2.82497,-0.47 -1.03166,0.006 -1.98831,0.17419 -2.86996,0.505 -0.88166,0.33085 -1.61832,0.78917 -2.20997,1.37498 -0.99832,1.08 -1.61165,2.40998 -1.83998,3.98995 -0.22833,1.57999 -0.32166,3.16997 -0.27999,4.76994 -0.0417,1.60165 0.0517,3.19829 0.27999,4.78993 0.22833,1.59165 0.84166,2.9283 1.83998,4.00995 0.59332,0.58583 1.33664,1.04416 2.22997,1.37498 0.89332,0.33083 1.85664,0.49916 2.88996,0.505 1.08748,0.008 2.04247,-0.15833 2.86497,-0.5 0.82247,-0.34166 1.58746,-0.90832 2.29497,-1.69997 l 0,1.95997 z m -5.19993,-10.43986 c 0.0466,1.73748 -0.15668,3.16246 -0.60999,4.27494 -0.45334,1.11249 -1.43666,1.68748 -2.94996,1.72498 -1.51166,-0.0375 -2.48832,-0.61249 -2.92997,-1.72498 -0.44167,-1.11248 -0.63833,-2.53746 -0.58999,-4.27494 -0.0483,-1.7358 0.14833,-3.15412 0.58999,-4.25495 0.44166,-1.1008 1.41831,-1.66913 2.92997,-1.70498 1.5133,0.0358 2.49662,0.60418 2.94996,1.70498 0.45331,1.10083 0.65664,2.51915 0.60999,4.25495 z" />
    <path
       inkscape:connector-curvature="0"
       style="fill:#444444;font-family:DINPro-Bold;-inkscape-font-specification:DINPro-Bold Bold;fill-opacity:1"
       id="path3829"
       d="m 170.24364,334.44505 c 0.0191,-1.85914 -0.13919,-3.43078 -0.475,-4.71494 -0.33585,-1.28414 -0.96417,-2.40579 -1.88497,-3.36496 -0.63751,-0.70164 -1.4925,-1.2983 -2.56497,-1.78998 -1.0725,-0.49164 -2.37748,-0.7483 -3.91495,-0.76999 -1.53582,0.0217 -2.83414,0.27835 -3.89495,0.76999 -1.06083,0.49168 -1.90915,1.08834 -2.54497,1.78998 -0.92082,0.95917 -1.54915,2.08082 -1.88497,3.36496 -0.33584,1.28416 -0.49417,2.8558 -0.475,4.71494 -0.0192,1.87831 0.13917,3.46162 0.475,4.74993 0.33582,1.28833 0.96415,2.41164 1.88497,3.36996 0.63582,0.70166 1.48414,1.29832 2.54497,1.78998 1.06081,0.49166 2.35913,0.74832 3.89495,0.76999 1.53747,-0.0217 2.84245,-0.27833 3.91495,-0.76999 1.07247,-0.49166 1.92746,-1.08832 2.56497,-1.78998 0.9208,-0.95832 1.54912,-2.08164 1.88497,-3.36996 0.33581,-1.28831 0.49414,-2.87162 0.475,-4.74993 z m -5.19994,0 c 0.0175,1.08916 -0.0475,2.07081 -0.195,2.94496 -0.14751,0.87416 -0.4825,1.58582 -1.00498,2.13497 -0.59334,0.60666 -1.40666,0.91333 -2.43997,0.91999 -0.5175,-8.3e-4 -0.9725,-0.0792 -1.36498,-0.235 -0.39251,-0.15583 -0.7375,-0.38416 -1.03499,-0.68499 -0.5225,-0.54915 -0.8575,-1.26081 -1.00499,-2.13497 -0.1475,-0.87415 -0.2125,-1.8558 -0.19499,-2.94496 -0.0175,-1.08748 0.0475,-2.06247 0.19499,-2.92497 0.14749,-0.86247 0.48249,-1.56746 1.00499,-2.11497 0.29749,-0.30081 0.64248,-0.52914 1.03499,-0.68499 0.39248,-0.15582 0.84748,-0.23415 1.36498,-0.235 1.03331,0.007 1.84663,0.31335 2.43997,0.91999 0.52248,0.54751 0.85747,1.2525 1.00498,2.11497 0.14749,0.8625 0.21249,1.83749 0.195,2.92497 z" />
  </g>
  <g
     style="font-size:40px;font-style:normal;font-variant:normal;font-weight:bold;font-stretch:normal;line-height:125%;letter-spacing:-1.34522903000000005px;word-spacing:0px;fill:#444444;fill-opacity:1;stroke:none;font-family:DINPro-Bold;-inkscape-font-specification:DINPro-Bold Bold"
     id="flowRoot3785"
     transform="matrix(2.2301035,0,0,2.234411,75.001949,-706.21464)">
    <path
       inkscape:connector-curvature="0"
       style="letter-spacing:-4.48409700000000022px;word-spacing:-0.01345229000000000px;fill:#444444;font-family:DINPro-Medium;-inkscape-font-specification:DINPro-Medium Bold;fill-opacity:1"
       id="path3832"
       d="m 85.398497,344.88491 0,-12.95983 c 0.01248,-1.14081 -0.132518,-2.18913 -0.434994,-3.14496 -0.302516,-0.95581 -0.837508,-1.81413 -1.60498,-2.57497 -0.603343,-0.58414 -1.326667,-1.0358 -2.169973,-1.35498 -0.843338,-0.31914 -1.786658,-0.48081 -2.829963,-0.48499 -1.029999,2e-5 -2.009985,0.19001 -2.939962,0.56999 -0.929997,0.38001 -1.749986,0.95 -2.459968,1.70998 l 0,-2.03998 -3.999949,0 0,20.27974 4.079948,0 0,-12.35984 c 0.03249,-1.5533 0.447486,-2.69662 1.244984,-3.42996 0.797481,-0.7333 1.782467,-1.09663 2.954962,-1.08998 1.167471,-0.009 2.132457,0.34918 2.894962,1.07498 0.762475,0.72584 1.15747,1.87416 1.184985,3.44496 l 0,12.35984 z" />
  </g>
</svg>
