<?xml version="1.0" encoding="UTF-8" standalone="no"?>
<!-- Created with Inkscape (http://www.inkscape.org/) -->

<svg
   xmlns:dc="http://purl.org/dc/elements/1.1/"
   xmlns:cc="http://creativecommons.org/ns#"
   xmlns:rdf="http://www.w3.org/1999/02/22-rdf-syntax-ns#"
   xmlns:svg="http://www.w3.org/2000/svg"
   xmlns="http://www.w3.org/2000/svg"
   xmlns:sodipodi="http://sodipodi.sourceforge.net/DTD/sodipodi-0.dtd"
   xmlns:inkscape="http://www.inkscape.org/namespaces/inkscape"
   width="744.09448819"
   height="1052.3622047"
   id="svg2"
   version="1.1"
   inkscape:version="0.48.4 r9939"
   sodipodi:docname="logo.png">
  <defs
     id="defs4" />
  <sodipodi:namedview
     id="base"
     pagecolor="#ffffff"
     bordercolor="#666666"
     borderopacity="1.0"
     inkscape:pageopacity="0.0"
     inkscape:pageshadow="2"
     inkscape:zoom="0.98994949"
     inkscape:cx="378.61283"
     inkscape:cy="588.99196"
     inkscape:document-units="px"
     inkscape:current-layer="layer1"
     showgrid="false"
     inkscape:window-width="1600"
     inkscape:window-height="880"
     inkscape:window-x="-8"
     inkscape:window-y="-8"
     inkscape:window-maximized="1" />
  <metadata
     id="metadata7">
    <rdf:RDF>
      <cc:Work
         rdf:about="">
        <dc:format>image/svg+xml</dc:format>
        <dc:type
           rdf:resource="http://purl.org/dc/dcmitype/StillImage" />
        <dc:title></dc:title>
      </cc:Work>
    </rdf:RDF>
  </metadata>
  <g
     inkscape:label="Layer 1"
     inkscape:groupmode="layer"
     id="layer1">
    <path
       sodipodi:type="star"
       style="fill:#000000;fill-opacity:1;stroke:#ffffff"
       id="path2985"
       sodipodi:sides="500"
       sodipodi:cx="157.14285"
       sodipodi:cy="209.50504"
       sodipodi:r1="421.81339"
       sodipodi:r2="181.37976"
       sodipodi:arg1="0.94897204"
       sodipodi:arg2="0.95525523"
       inkscape:flatsided="false"
       inkscape:rounded="0.01"
       inkscape:randomized="0"
       d="M 402.85714,552.36218 C 400.9028,553.76279 263.8347,356.20626 261.8716,357.59456 c -1.9631,1.3883 138.62956,196.45227 136.65778,197.8282 -1.97178,1.37594 -136.54656,-197.88739 -138.52695,-196.52387 -1.98039,1.36353 136.14999,198.17878 134.16108,199.52984 -1.98892,1.35105 -134.04912,-199.58762 -136.04649,-198.24909 -1.99737,1.33853 133.64892,199.87399 131.64318,201.19995 -2.00573,1.32595 -131.53051,-201.25633 -133.54454,-199.94301 -2.01403,1.31333 131.12675,201.53766 129.10451,202.8383 -2.02224,1.30065 -128.99113,-202.89325 -131.02151,-201.60534 -2.03037,1.28791 128.58386,203.16949 126.54544,204.44462 -2.03843,1.27513 -126.43138,-204.49814 -128.47778,-203.23585 -2.0464,1.2623 126.02067,204.76924 123.96639,206.01865 -2.05429,1.24942 -123.85167,-206.07074 -125.91377,-204.83425 -2.0621,1.23648 123.43759,206.33664 121.36776,207.56014 -2.06982,1.22351 -121.25239,-207.61079 -123.32987,-206.40032 -2.07747,1.21048 120.83501,207.87148 118.74997,209.06888 -2.08504,1.19739 -118.63398,-209.11807 -120.72649,-207.93379 -2.09252,1.18427 118.21334,209.37348 116.11342,210.54458 -2.09992,1.1711 -115.99682,-210.59231 -118.10406,-209.43443 -2.10724,1.15788 115.57301,210.84242 113.45854,211.98704 -2.11447,1.14463 -113.34135,-212.0333 -115.46297,-210.90199 -2.12162,1.13132 112.91443,212.27807 110.78575,213.39603 C 351.1423,584.06681 242.603,369.50804 240.46734,370.6126 c -2.13567,1.10456 110.23802,213.6802 108.09545,214.77132 -2.14256,1.09112 -107.97714,-214.81462 -110.12652,-213.73698 -2.14938,1.07764 107.54421,215.04858 105.3881,216.1127 -2.15611,1.06411 -105.26925,-216.15451 -107.432,-215.10396 -2.16275,1.05054 104.83341,216.383 102.6641,217.41994 -2.16931,1.03693 -102.54473,-217.46026 -104.72051,-216.43697 -2.17578,1.02328 102.10605,217.68326 99.92388,218.69285 -2.18217,1.0096 -99.80402,-218.73166 -101.99249,-217.7358 -2.18846,0.99586 99.36258,218.94914 97.16789,219.93124 -2.19468,0.98209 -97.04754,-219.96854 -99.24835,-219.00026 -2.20081,0.96828 96.6034,220.18045 94.39655,221.13489 -2.20685,0.95444 -94.27575,-221.17067 -96.48856,-220.23012 -2.2128,0.94055 93.82898,221.37699 91.61032,222.30362 -2.21867,0.92663 -91.48907,-222.33789 -93.71352,-221.42522 -2.22445,0.91267 91.03974,222.53857 88.8096,223.43725 -2.23014,0.89868 -88.68794,-223.46999 -90.92368,-222.58534 -2.23574,0.88465 88.23612,223.66501 85.99487,224.53559 -2.24126,0.87058 -85.87281,-224.5668 -88.11949,-223.71031 -2.24668,0.85648 85.41858,224.75612 83.16656,225.59847 -2.25202,0.84235 -83.04411,-225.62814 -85.30137,-224.79996 -2.25727,0.82818 82.58753,225.81175 80.3251,226.62574 -2.26242,0.81398 -80.20229,-226.65387 -82.46979,-225.85412 -2.26749,0.79975 79.74345,226.83172 77.47098,227.61721 -2.27248,0.78549 -77.34783,-227.64379 -79.62519,-226.8726 -2.27737,0.7712 76.88678,227.81587 74.60461,228.57275 -2.28216,0.75687 -74.48113,-228.59778 -76.76801,-227.85527 -2.28688,0.74252 74.01797,228.76405 71.72647,229.49219 -2.29149,0.72813 -71.60269,-229.51567 -73.89871,-228.80194 -2.29603,0.71372 71.13746,229.67609 68.837,230.37538 -2.30047,0.69928 -68.71293,-230.39731 -71.01775,-229.71249 -2.30481,0.68481 68.24573,230.55188 65.93666,231.22219 -2.30907,0.67032 -65.81232,-231.24256 -68.12556,-230.58676 -2.31324,0.6558 65.34322,231.39126 63.0259,232.0325 -2.31731,0.64125 -62.90132,-232.0513 -65.22262,-231.42462 -2.32129,0.62668 62.43039,232.19409 60.1052,232.80617 -2.32518,0.61208 -59.98039,-232.8234 -62.30938,-232.22595 -2.32898,0.59746 59.5077,232.96026 57.17501,233.54308 -2.3327,0.58281 -57.04999,-233.55874 -59.3863,-232.99059 -2.33631,0.56814 56.57561,233.68964 54.23577,234.24309 -2.33983,0.55346 -54.11057,-234.25718 -56.45384,-233.71844 -2.34326,0.53874 53.63459,234.38212 51.28799,234.90613 -2.34661,0.52401 -51.16262,-234.91865 -53.51247,-234.40939 -2.34985,0.50925 50.6851,235.03759 48.33209,235.53207 -2.353,0.49448 -48.20658,-235.54301 -50.56264,-235.06333 -2.35606,0.47969 47.7276,235.65595 45.36857,236.12082 -2.35903,0.46487 -45.24293,-236.13018 -47.60483,-235.68014 -2.36191,0.45004 44.76257,236.23709 42.39788,236.67228 -2.36468,0.43519 -42.27213,-236.68006 -44.63951,-236.25973 -2.36737,0.42032 41.79048,236.78092 39.42051,237.18636 -2.36997,0.40544 -39.29467,-237.19257 -41.66714,-236.80202 -2.37247,0.39054 38.81178,237.28737 36.4369,237.663 -2.37487,0.37562 -36.311,-237.66762 -38.68818,-237.30692 -2.37719,0.3607 35.82695,237.75634 33.44754,238.1021 -2.37941,0.34576 -33.32159,-238.10514 -35.70313,-237.77434 -2.38153,0.3308 32.83647,238.18778 30.45291,238.50361 -2.38357,0.31583 -30.32692,-238.50506 -32.71243,-238.20421 -2.3855,0.30084 29.8408,238.58159 27.45345,238.86744 -2.38734,0.28585 -27.32746,-238.86731 -29.71655,-238.59647 -2.3891,0.27085 26.84041,238.93774 24.44966,239.19357 -2.39075,0.25583 -24.32368,-239.19185 -26.71599,-238.95105 -2.39231,0.24081 23.83579,239.25615 21.44202,239.48192 -2.39378,0.22577 -21.31608,-239.47862 -23.71122,-239.2679 -2.39515,0.21072 20.82741,239.53678 18.43098,239.73245 -2.39642,0.19567 -18.30509,-239.72757 -20.70269,-239.54696 -2.39761,0.18061 17.81573,239.77958 15.41704,239.94512 -2.39869,0.16554 -15.29122,-239.93866 -17.69091,-239.7882 -2.39968,0.15047 14.80126,239.98453 12.40067,240.11992 -2.40058,0.13538 -12.27493,-240.11188 -14.67632,-239.99157 -2.40139,0.1203 11.78443,240.15156 9.38233,240.25677 -2.40209,0.10521 -9.25671,-240.24716 -11.65942,-240.15704 -2.40271,0.0901 8.76575,240.28069 6.36252,240.35571 -2.40323,0.075 -6.23702,-240.34451 -8.64068,-240.2846 -2.40365,0.0599 5.74568,240.37187 3.3417,240.41668 -2.40399,0.0448 -3.21636,-240.4039 -5.62057,-240.3742 -2.40422,0.0297 2.7247,240.42509 0.32034,240.43969 -2.40435,0.0146 -0.19517,-240.42534 -2.59957,-240.42585 -2.4044,-5.1e-4 -0.29671,240.44035 -2.70106,240.42474 -2.40435,-0.0156 2.82604,-240.40882 0.42184,-240.43954 -2.4042,-0.0307 -3.31807,240.41764 -5.72203,240.37181 -2.40397,-0.0458 5.8468,-240.35432 3.44317,-240.41525 -2.40363,-0.0609 -6.3389,240.35696 -8.7421,240.28093 -2.4032,-0.076 8.86664,-240.26188 6.46397,-240.35301 -2.40267,-0.0911 -9.35874,240.25833 -11.76079,240.15211 -2.40205,-0.10623 11.88508,-240.13149 9.48375,-240.2528 -2.40134,-0.12132 -12.3771,240.12175 -14.77763,239.98535 -2.40052,-0.1364 14.90165,-239.96317 12.50203,-240.11465 -2.39963,-0.15148 -15.3935,239.94726 -17.79212,239.78071 -2.39863,-0.16656 17.91585,-239.75698 15.51832,-239.9386 -2.39753,-0.18162 -18.40747,239.73488 -20.80381,239.5382 -2.39634,-0.19668 20.92724,-239.51291 18.53218,-239.72465 -2.39506,-0.21173 -21.41853,239.48465 -23.81221,239.25787 -2.39369,-0.22678 23.93531,-239.23103 21.5431,-239.47284 -2.39221,-0.24182 -24.42622,239.19659 -26.81686,238.93975 -2.39064,-0.25684 26.93961,-238.91137 24.55063,-239.18323 -2.38898,-0.27185 -27.43004,238.87077 -29.81727,238.58391 -2.38722,-0.28687 29.93966,-238.55398 27.55428,-238.85584 -2.38538,-0.30185 -30.42953,238.50722 -32.81297,238.19038 -2.383429,-0.31684 32.93497,-238.15892 30.55358,-238.49073 -2.3814,-0.3318 -33.424228,238.10601 -35.803491,237.75925 C 93.929816,626.5619 132.23416,389.1824 129.85712,388.8207 127.48009,388.45899 93.443489,626.48789 91.068772,626.11126 88.694054,625.73463 129.97829,388.85521 127.60599,388.46367 125.23369,388.07212 88.208695,625.65452 85.838898,625.24808 83.469101,624.84164 127.72672,388.4997 125.35952,388.07837 122.99232,387.65705 82.984787,624.75543 80.620284,624.31924 78.255782,623.88305 125.47979,388.11592 123.11807,387.66488 120.75636,387.21385 77.772589,623.79078 75.413754,623.32491 73.05492,622.85904 123.23785,387.70394 120.88199,387.22326 118.52613,386.74258 72.572925,622.7607 70.22013,622.26522 67.867336,621.76975 121.00128,387.26382 118.65164,386.75357 116.30201,386.24333 67.386615,621.66536 65.040232,621.14036 62.69385,620.61536 118.77041,386.79563 116.42737,386.2559 114.08433,385.71617 62.214479,620.50493 59.874879,619.95049 57.535278,619.39605 116.5456,386.29944 114.20953,385.73031 111.87346,385.16118 57.057333,619.27961 54.724885,618.69581 52.392436,618.11201 114.3272,385.77533 111.99846,385.17689 109.66973,384.57845 51.915992,617.98958 49.591063,617.37652 47.266135,616.76345 112.11556,385.22339 109.79453,384.59574 107.4735,383.96808 46.791267,616.63504 44.474226,615.99281 42.157185,615.35058 109.91103,384.6437 107.59807,383.98693 105.28511,383.33016 41.683968,615.21621 39.37518,614.54492 37.066393,613.87363 107.71396,384.03636 105.40943,383.35057 103.10491,382.66479 36.594901,613.73332 34.294731,613.03307 31.994561,612.33281 105.52469,383.40145 103.22897,382.68676 100.93324,381.97207 31.52487,612.18659 29.233682,611.45749 26.942493,610.72839 103.34358,382.73909 101.05702,381.9956 98.770454,381.25212 26.474676,610.57628 24.19283,609.81844 21.910984,609.06061 101.17096,382.04937 98.893922,381.27721 96.616882,380.50505 21.445116,608.90263 19.172973,608.11618 16.90083,607.32973 99.007181,381.3324 96.740025,380.53169 94.472868,379.73098 16.436984,607.16591 14.174903,606.35097 11.912822,605.53603 96.852582,380.5883 94.595666,379.75916 92.33875,378.93002 11.451071,605.3664 9.1994094,604.5231 6.9477476,603.6798 94.707503,379.81718 92.461184,378.95975 90.214866,378.10232 6.4881646,603.50437 4.2472776,602.63285 2.0063906,601.76132 92.572284,379.01917 90.336917,378.13358 88.10155,377.24799 1.5490483,601.58013 -0.68071011,600.68051 -2.9104685,599.7809 90.44726,378.19439 88.223198,377.28078 85.999136,376.36717 -3.365498,599.59398 -5.5837757,598.66641 -7.8020534,597.73884 88.332769,377.34297 86.120363,376.40148 83.907958,375.46 -8.2546981,597.54622 -10.461145,596.59086 -12.667592,595.63549 86.229144,376.46504 84.028744,375.49583 81.828343,374.52662 -13.11778,595.43719 -15.312047,594.45417 -17.506315,593.47116 84.136717,375.56076 81.948669,374.56397 79.760622,373.56719 -17.953976,593.26722 -20.135717,592.2567 -22.317459,591.24619 82.055819,374.63025 79.880469,373.60605 77.70512,372.58184 -22.762522,591.03664 -24.931393,589.99879 -27.100264,588.96094 79.986777,373.67366 77.82447,372.62221 75.662163,371.57075 -27.542659,588.74582 -29.698317,587.6808 -31.853975,586.61578 77.929919,372.69116 75.780996,371.61261 73.632072,370.53406 -32.293632,586.39511 -34.435736,585.30309 -36.577841,584.21106 75.88557,371.68288 73.750369,370.57741 71.615168,369.47195 -37.01469,583.98489 -39.142903,582.86603 -41.271117,581.74717 73.854053,370.64899 71.732912,369.51678 69.61177,368.38458 -41.705089,581.51553 -43.819075,580.37002 -45.93306,579.22451 71.835688,369.58966 69.728941,368.43089 67.622195,367.27211 -46.364088,578.98743 -48.463512,577.81544 -50.562936,576.64345 69.830793,368.50504 67.738775,367.31989 65.646756,366.13474 -50.99095,576.40098 -53.075481,575.2027 -55.160012,574.00443 67.839687,367.39532 65.762726,366.18397 63.685765,364.97263 -55.584946,573.75659 -57.654255,572.53222 -59.723564,571.30784 65.862682,366.26067 63.801107,365.02332 61.739532,363.78596 -60.145349,571.05469 -62.199109,569.8044 -64.252869,568.55412 63.900092,365.10126 61.854228,363.8381 59.808364,362.57494 -64.67144,568.29569 -66.709327,567.0197 -68.747214,565.74371 61.952225,363.91729 59.922396,362.62852 57.892567,361.33975 -69.162505,565.48003 -71.184196,564.17853 -73.205888,562.87704 60.019391,362.70893 58.005916,361.39475 55.992442,360.08058 -73.617832,562.60816 -75.62301,561.28136 -77.628187,559.95456 58.101893,361.47637 56.105092,360.137 54.10829,358.79763 -78.036721,559.68054 -80.025067,558.32864 -82.013413,556.97675 56.200035,360.21982 54.220222,358.85546 52.240409,357.4911 -82.418471,556.69761 -84.389673,555.32084 -86.360874,553.94407 54.314117,358.93947 52.351605,357.55034 50.389093,356.16121 -86.762392,553.65986 -88.716137,552.25843 -90.669883,550.857 52.444437,357.63552 50.499535,356.22184 48.554634,354.80816 -91.067798,550.56777 -93.003778,549.14189 -94.939759,547.71602 50.59129,356.30818 48.664306,354.87017 46.737323,353.43216 -95.334008,547.42181 -97.251918,545.97172 -99.169828,544.52164 48.754968,354.95766 46.846207,353.49555 44.937446,352.03344 -99.560349,544.2225 -101.45989,542.74842 -103.35942,541.27435 46.935763,353.58417 45.045525,352.09819 43.155288,350.61221 -103.74615,540.97033 -105.62702,539.4725 -107.50788,537.97467 45.13396,352.18792 43.262545,350.67831 41.391129,349.16869 -107.89076,537.66581 -109.75265,536.14447 -111.61455,534.62313 43.349845,350.76915 41.497547,349.23614 39.64525,347.70313 -111.99352,534.30948 -113.83615,532.76486 -115.67877,531.22024 41.583699,349.32807 39.750812,347.7719 37.917924,346.21573 -116.05377,530.90186 -117.87685,529.3342 -119.69992,527.76655 39.835802,347.86491 38.022613,346.28583 36.209425,344.70675 -120.07089,527.44348 -121.87412,525.85304 -123.67735,524.2626 38.106428,346.3799 36.313226,344.77816 34.520024,343.17643 -124.04423,523.9349 -125.82733,522.32193 -127.61043,520.70895 36.395852,344.87328 34.622918,343.24913 32.849985,341.62499 -127.97316,520.37667 -129.73586,518.74141 -131.49855,517.10616 34.704342,343.34528 32.951958,341.69898 31.199574,340.05269 -131.85708,516.76934 -133.59908,515.11207 -135.34109,513.4548 33.032168,341.79614 31.30061,340.12796 29.569051,338.45977 -135.69535,513.1135 -137.4164,511.43446 -139.13744,509.75543 31.379592,340.22612 29.669133,338.5363 27.958674,336.84649 -139.48739,509.40971 -141.1872,507.70918 -142.88701,506.00866 29.746875,338.63545 28.057785,336.92428 26.368696,335.2131 -143.23258,505.65856 -144.91089,503.93681 -146.58919,502.21506 28.134276,337.02439 26.466822,335.29213 24.799368,333.55987 -146.93034,501.86065 -148.58688,500.11794 -150.24342,498.37524 26.542049,335.39319 24.896494,333.64012 23.25094,331.88704 -150.58009,498.01657 -152.21459,496.25319 -153.8491,494.4898 24.970445,333.74212 23.347049,331.9685 21.723654,330.19488 -154.18124,494.12693 -155.79346,492.34315 -157.40568,490.55936 23.419712,332.07143 21.818733,330.27755 20.217753,328.48367 -157.73323,490.19235 -159.3229,488.38845 -160.91258,486.58454 21.890096,330.38138 20.311785,328.56753 18.733474,326.75367 -161.23549,486.21344 -162.80238,484.3897 -164.36926,482.56597 20.381838,328.67224 18.826445,326.8387 17.271051,325.00516 -164.68749,482.19084 -166.23133,480.34756 -167.77517,478.50428 18.895177,326.94429 17.362946,325.09135 15.830715,323.2384 -168.08866,478.12517 -169.60921,476.26264 -171.12977,474.4001 17.430346,325.19779 15.92152,323.32574 14.412695,321.45369 -171.43847,474.01709 -172.9355,472.1356 -174.43253,470.2541 15.987577,323.43303 14.502395,321.54216 13.017213,319.6513 -174.73639,469.86724 -176.20967,467.96708 -177.68294,466.06692 14.567098,321.65027 13.105794,319.74089 11.64449,317.83151 -177.98191,465.67628 -179.43119,463.75776 -180.88047,461.83923 13.169134,319.8498 11.731939,317.92221 10.294743,315.99462 -181.17451,461.44486 -182.59957,459.50828 -184.02462,457.5717 11.793905,318.03191 10.381045,316.08641 8.9681855,314.14091 -184.31368,457.17366 -185.71429,455.21932 -187.1149,453.26498 10.441628,316.19688 9.0533271,314.23378 7.6650261,312.27068 -187.39894,452.86335 -188.77488,450.89156 -190.15082,448.91978 9.112517,314.345 7.7489941,312.36461 6.3854711,310.38422 -190.42978,448.51461 -191.78084,446.52569 -193.13189,444.53677 7.8067817,312.47657 6.468252,310.4792 5.1297223,308.48184 -193.40574,444.12812 -194.7317,442.12239 -196.05765,440.11665 6.5246282,310.59188 5.2113032,308.57785 3.8979782,306.56382 -196.32635,439.70459 -197.62699,437.68235 -198.92764,435.66011 5.2662592,308.69122 3.9783462,306.66085 2.6904333,304.63047 -199.19114,435.24471 -200.46627,433.20628 -201.7414,431.16786 4.0318732,306.7749 2.7695757,304.7285 1.5072782,302.68211 -201.99966,430.74918 -203.24907,428.69489 -204.49849,426.6406 2.8216652,304.84322 1.5851824,302.78112 0.3486997,300.71903 -204.75146,426.21871 -205.97497,424.14888 -207.19847,422.07906 1.6358263,302.89649 0.42535355,300.81902 -0.78511916,298.74154 -207.44612,421.65402 -208.64352,419.56898 -209.84091,417.48395 0.47454372,300.93501 -0.70972781,298.84249 -1.8939994,296.74997 -210.08321,417.05583 -211.25431,414.95591 -212.42541,412.85599 -0.66199907,298.95909 -1.8198824,296.85185 -2.9777658,294.74462 -212.66231,412.42487 -213.80693,410.3104 -214.95155,408.19593 -1.7736227,296.96904 -2.904935,294.84742 -4.0362473,292.7258 -215.18301,407.76186 -216.30097,405.63317 -217.41893,403.50449 -2.8601515,294.96519 -3.9647141,292.82952 -5.0692768,290.69385 -217.64491,403.06754 -218.73603,400.92498 -219.82716,398.78241 -3.921414,292.94783 -4.9990525,290.79846 -6.0766911,288.64908 -220.04763,398.34266 -221.11175,396.18655 -222.17586,394.03045 -4.9572426,290.91731 -6.0077869,288.75456 -7.0583311,286.5918 -222.39079,393.58796 -223.42773,391.41865 -224.46466,389.24934 -5.9674737,288.87392 -6.9907578,286.69814 -8.0140419,284.52236 -224.67402,388.80419 -225.68361,386.62202 -226.69321,384.43986 -6.9519478,286.818 -7.9478101,284.62954 -8.9436725,282.44107 -226.89696,383.99211 -227.87905,381.79743 c -0.98209,-2.19469 219.9685406,-97.04755 219.0002573,-99.24836 -0.9682834,-2.20081 -220.1804473,96.6034 -221.1348873,94.39655 -0.95444,-2.20685 221.1706729,-94.27575 220.2301214,-96.48855 -0.9405514,-2.21281 -221.3769914,93.82898 -222.3036214,91.61031 -0.92663,-2.21867 222.3378862,-91.48907 221.425215,-93.71352 -0.912671,-2.22445 -222.538565,91.03974 -223.437245,88.8096 -0.89868,-2.23014 223.469984,-88.68794 222.585337,-90.92368 -0.884646,-2.23574 -223.665007,88.23613 -224.535587,85.99487 -0.87058,-2.24125 224.566794,-85.8728 223.710312,-88.11948 -0.856482,-2.24668 -224.756122,85.41857 -225.598472,83.16655 -0.84235,-2.25202 225.628143,-83.04411 224.79996,-85.30137 -0.828182,-2.25727 -225.81175,82.58753 -226.62574,80.32511 -0.81398,-2.26243 226.65387,-80.2023 225.854118,-82.4698 -0.799753,-2.26749 -226.831728,79.74346 -227.617218,77.47098 -0.78548,-2.27247 227.643802,-77.34782 226.872606,-79.62519 -0.771196,-2.27736 -227.815876,76.88678 -228.572746,74.60462 -0.75687,-2.28217 228.597781,-74.48114 227.855263,-76.76802 -0.742517,-2.28687 -228.764043,74.01797 -229.492183,71.72647 -0.72813,-2.29149 229.515664,-71.60268 228.801942,-73.89871 -0.713721,-2.29603 -229.676102,71.13747 -230.375382,68.837 -0.69928,-2.30047 230.397306,-68.71293 229.712493,-71.01774 -0.684814,-2.30482 -230.551883,68.24572 -231.222203,65.93665 -0.67031,-2.30907 231.242566,-65.81232 230.586768,-68.12556 -0.655797,-2.31323 -231.391258,65.34322 -232.032508,63.02591 -0.64125,-2.31731 232.051307,-62.90133 231.42463,-65.22262 -0.626677,-2.3213 -232.19409,62.43038 -232.80617,60.1052 -0.61208,-2.32519 232.823402,-59.9804 232.225944,-62.30938 -0.597458,-2.32899 -232.960264,59.50769 -233.543074,57.175 -0.58281,-2.3327 233.558737,-57.04999 232.990592,-59.3863 -0.568145,-2.33631 -233.689642,56.57561 -234.243102,54.23577 -0.55345,-2.33983 234.257192,-54.11057 233.71845,-56.45384 -0.538742,-2.34326 -234.38212,53.63459 -234.90613,51.28799 -0.52401,-2.3466 234.918646,-51.16262 234.409392,-53.51247 -0.509254,-2.34985 -235.037592,50.6851 -235.532072,48.3321 -0.49448,-2.35301 235.543012,-48.20658 235.063326,-50.56265 -0.479685,-2.35606 -235.655946,47.72761 -236.120816,45.36858 -0.46487,-2.35904 236.130178,-45.24294 235.680137,-47.60484 -0.450041,-2.36191 -236.237087,44.76257 -236.672277,42.39789 -0.43519,-2.36469 236.680059,-42.27214 236.259733,-44.63952 -0.420326,-2.36737 -236.780923,41.79048 -237.186363,39.42051 -0.40544,-2.36997 237.192564,-39.29467 236.80202,-41.66714 -0.390544,-2.37247 -237.28737,38.81178 -237.663,36.4369 -0.37563,-2.37487 237.667619,-36.31099 237.306919,-38.68818 -0.360701,-2.37719 -237.756339,35.82695 -238.102099,33.44754 -0.34576,-2.37941 238.105136,-33.32159 237.774335,-35.70312 -0.3308,-2.38154 -238.187775,32.83646 -238.503605,30.4529 -0.31583,-2.38357 238.505059,-30.32692 238.204212,-32.71242 -0.300848,-2.38551 -238.581592,29.84079 -238.867442,27.45345 -0.28586,-2.38735 238.867312,-27.32746 238.596465,-29.71656 -0.270848,-2.38909 -238.937735,26.84042 -239.193565,24.44967 -0.25583,-2.39075 239.191852,-24.32369 238.951047,-26.716 -0.240804,-2.39231 -239.256147,23.83579 -239.481917,21.44202 -0.22577,-2.39378 239.478622,-21.31607 239.267898,-23.71122 -0.210724,-2.39515 -239.536778,20.82741 -239.732448,18.43099 -0.19567,-2.39643 239.72757,-18.30509 239.54696,-20.7027 -0.180609,-2.39761 -239.77958,17.81574 -239.94512,15.41704 -0.16555,-2.39869 239.938661,-15.29122 239.788194,-17.6909 -0.150467,-2.39969 -239.984524,14.80125 -240.119914,12.40066 -0.13538,-2.40058 240.111874,-12.27493 239.991573,-14.67632 -0.1203,-2.40138 -240.151573,11.78443 -240.256783,9.38233 -0.10521,-2.40209 240.247164,-9.2567 240.157048,-11.65941 -0.09012,-2.40271 -240.280688,8.76574 -240.355708,6.36251 -0.075,-2.40323 240.344511,-6.23702 240.284596,-8.64067 -0.05992,-2.40366 -240.371866,5.74567 -240.416686,3.34169 -0.0448,-2.40398 240.403912,-3.21635 240.374206,-5.62057 -0.02971,-2.40421 -240.425096,2.7247 -240.439696,0.32034 -0.0146,-2.40435 240.425349,-0.19517 240.425856,-2.59957 5.08e-4,-2.4044 -240.440346,-0.29671 -240.424736,-2.70105 0.0156,-2.40435 240.408817,2.82603 240.439538,0.42183 0.03072,-2.4042 -240.417638,-3.31807 -240.371808,-5.72203 0.0458,-2.40396 240.35432,5.8468 240.41525,3.44317 0.06093,-2.40362 -240.35696,-6.3389 -240.28093,-8.7421 0.076,-2.40319 240.261875,8.86665 240.353004,6.46397 0.09113,-2.40267 -240.258324,-9.35873 -240.152104,-11.76079 0.10623,-2.40205 240.131486,11.88509 240.2528,9.48375 0.121314,-2.40134 -240.12175,-12.3771 -239.98535,-14.77762 0.1364,-2.40053 239.963171,14.90164 240.114651,12.50202 0.15148,-2.39962 -239.947261,-15.3935 -239.780711,-17.79212 0.16656,-2.39863 239.756976,17.91585 239.938598,15.51832 0.181621,-2.39753 -239.734888,-18.40747 -239.538198,-20.80381 0.19668,-2.39634 239.512909,20.92724 239.724644,18.53218 0.211735,-2.39506 -239.484644,-21.41853 -239.257864,-23.81221 0.22678,-2.39368 239.231027,23.93531 239.472842,21.5431 0.241814,-2.39221 -239.196592,-24.42621 -238.939752,-26.81686 0.25684,-2.39064 238.911369,26.93961 239.183225,24.55063 0.271856,-2.38898 -238.870765,-27.43004 -238.583905,-29.81726 0.28686,-2.38723 238.553983,29.93965 238.855838,27.55427 0.301854,-2.38537 -238.507218,-30.42953 -238.190378,-32.81296 0.31683,-2.38344 238.15892,32.93496 238.490725,30.55357 0.331806,-2.3814 -238.106005,-33.42423 -237.759245,-35.80349 0.34676,-2.37926 237.726257,35.92508 238.087961,33.54805 0.361704,-2.37704 -237.667201,-36.41364 -237.290561,-38.78836 0.37663,-2.37471 237.256047,38.90953 237.647592,36.53722 0.391546,-2.3723 -237.190852,-39.39729 -236.784412,-41.76709 0.40644,-2.3698 236.748379,41.88782 237.169704,39.52062 0.421325,-2.36719 -236.677064,-42.37473 -236.240874,-44.73923 0.43619,-2.36451 236.203326,44.8595 236.654364,42.49778 0.451038,-2.36171 -236.125894,-45.34548 -235.660024,-47.70431 0.46587,-2.35884 235.620967,47.8241 236.101647,45.46824 0.48068,-2.35586 -235.537437,-48.30907 -235.041957,-50.66187 0.49547,-2.35279 235.001399,50.78115 235.511644,48.43152 0.510246,-2.34964 -234.911784,-51.26503 -234.386784,-53.61141 0.525,-2.34639 234.34473,53.73017 234.884461,51.38713 0.539731,-2.34304 -234.249041,-54.21289 -233.694591,-56.55249 0.55444,-2.3396 233.651048,56.67072 234.220179,54.33465 0.569131,-2.33607 -233.549299,-57.15219 -232.965499,-59.48464 0.58379,-2.33245 232.920474,59.60231 233.518915,57.27357 0.598441,-2.32873 -232.812685,-60.08247 -232.199625,-62.40739 0.61306,-2.324932 232.153125,62.52449 232.780782,60.20346 0.627657,-2.32103 -232.039302,-63.003261 -231.397072,-65.320301 0.64222,-2.317041 231.349104,65.436801 232.005877,63.123841 0.656774,-2.31296 -231.229277,-65.9141 -230.557987,-68.222887 0.67129,-2.308788 230.508559,68.338777 231.194345,66.034257 0.685787,-2.30453 -230.382745,-68.814536 -229.682495,-71.114706 0.70026,-2.30017 229.631614,71.229966 230.346306,68.934236 0.714691,-2.29572 -229.499826,-71.704097 -228.770726,-73.995286 0.7291,-2.291189 228.7184,74.109896 229.461883,71.823336 0.743483,-2.28656 -228.580673,-74.582341 -227.822833,-76.864187 0.75783,-2.281846 227.769072,76.978127 228.541229,74.701087 0.772157,-2.27704 -227.625419,-77.448801 -226.838969,-79.720944 0.78645,-2.272143 226.78378,79.834204 227.58449,77.567054 0.80071,-2.26716 -226.63422,-80.303043 -225.81928,-82.565124 0.81494,-2.262081 225.762672,82.677674 226.591808,80.420764 0.829135,-2.25692 -225.607238,-83.144596 -224.763938,-85.396258 0.8433,-2.251662 224.70592,85.508098 225.563351,83.261778 0.85743,-2.24632 -224.544621,-85.973023 -223.673101,-88.21391 0.87153,-2.240887 223.613683,88.32501 224.499273,86.08964 0.88559,-2.23537 -223.446553,-88.787869 -222.546943,-91.017627 0.89962,-2.229759 222.486133,91.127967 223.399743,88.903907 C -9.7192771,138.36132 -232.94609,48.996685 -232.01852,46.778407 -231.09096,44.560129 -10.695078,140.69495 -9.753593,138.48255 -8.8121076,136.27014 -230.89833,44.107485 -229.94297,41.901038 -228.9876,39.694591 -9.8171564,138.59133 -8.8479441,136.39093 -7.8787318,134.19053 -228.7893,39.244403 -227.80629,37.050135 -226.82327,34.855868 -8.9128695,136.4989 -7.9160834,134.31085 -6.9192973,132.1228 -226.61933,34.408207 -225.60882,32.226465 -224.5983,30.044724 -7.9823604,134.418 -6.9581579,132.24265 -5.9339554,130.0673 -224.38876,29.599661 -223.35091,27.43079 -222.31306,25.261919 -7.0257761,132.34896 -5.974319,130.18665 -4.9228619,128.02435 -222.09793,24.819524 -221.03291,22.663866 -219.96789,20.508208 -6.0432677,130.2921 -4.964722,128.14318 -3.8861762,125.99425 -219.74723,20.068551 -218.6552,17.926446 -217.56317,15.784341 -5.0349904,128.24775 -3.9295263,126.11255 -2.8240622,123.97735 -217.337,15.347492 -216.21814,13.219279 -215.09929,11.091066 -4.0011032,126.21624 -2.8688954,124.09509 -1.7366876,121.97395 -214.86764,10.657093 -213.72213,8.5431079 -212.57662,6.4291223 -2.9417696,124.19787 -1.7829969,122.09112 -0.6242241,119.98438 -212.33954,5.998095 -211.16755,3.8986709 -209.99557,1.7992468 -1.8571568,122.19298 -0.67200204,120.10096 0.51315268,118.00894 -209.75309,1.3712325 -208.55481,-0.71329857 -207.35654,-2.7978297 -0.74743596,120.20187 0.46391358,118.12491 1.6752631,116.04795 -207.1087,-3.2227631 -205.88433,-5.2920721 -204.65995,-7.361381 0.38721754,118.22486 1.6245706,116.16329 2.8619237,114.10171 -204.4068,-7.7831666 -203.15652,-9.8369266 -201.90623,-11.890687 1.5466246,116.26227 2.8097858,114.21641 4.072947,112.17055 -201.6478,-12.309258 -200.37181,-14.347145 -199.09582,-16.385031 2.730602,114.31441 4.0193719,112.28458 5.3081418,110.25475 -198.83214,-16.800322 -197.53065,-18.822014 -196.22915,-20.843705 3.938963,112.38157 5.2531381,110.3681 6.5673131,108.35462 -195.96028,-21.25565 -194.63348,-23.260827 -193.30668,-25.266005 5.1715166,110.46408 6.5108893,108.46727 7.850262,106.47047 -193.03265,-25.674538 -191.68076,-27.662884 -190.32886,-29.651231 6.4280683,108.56222 7.7924271,106.5824 9.1567859,104.60259 -190.04972,-30.056288 -188.67295,-32.02749 -187.29618,-33.998692 7.7084196,106.6763 9.0975491,104.71379 10.486679,102.75128 -187.01197,-34.400209 -185.61054,-36.353955 -184.20911,-38.3077 9.0123683,104.80662 10.426049,102.86172 11.83973,100.91682 -183.91988,-38.705615 -182.494,-40.641596 -181.06813,-42.577576 10.339709,102.95347 11.777717,101.02649 13.215726,99.099506 -180.77392,-42.971825 -179.32384,-44.889735 -177.87375,-46.807646 11.690231,101.11715 13.152341,99.20839 14.614451,97.299629 -177.57461,-47.198166 -176.10053,-49.097703 -174.62646,-50.99724 13.063721,99.297946 14.549702,97.407708 16.035682,95.51747 -174.32244,-51.383971 -172.82461,-53.264835 -171.32678,-55.145698 14.459964,97.496143 15.96958,95.624727 17.479195,93.753312 -171.01793,-55.528578 -169.49658,-57.390472 -167.97524,-59.252365 15.878738,95.712028 17.411751,93.85973 18.944763,92.007432 -167.66159,-59.631334 -166.11697,-61.473963 -164.57235,-63.316592 17.319819,93.945882 18.875987,92.112994 20.432154,90.280107 -164.25397,-63.69159 -162.68632,-65.514664 -161.11866,-67.337737 18.78298,92.197984 20.362057,90.384796 21.941134,88.571608 -160.79559,-67.708705 -159.20515,-69.511935 -157.61472,-71.315166 20.267989,90.468611 21.869726,88.675408 23.471463,86.882206 -157.28701,-71.682044 -155.67404,-73.465147 -154.06107,-75.24825 21.774613,88.758034 23.398756,86.985101 25.0229,85.212168 -153.72878,-75.610981 -152.09353,-77.373674 -150.45827,-79.136368 23.302612,87.066525 24.948907,85.314141 26.595201,83.561757 -150.12145,-79.494895 -148.46418,-81.2369 -146.80691,-82.978906 24.851747,85.394351 26.519932,83.662792 28.188117,81.931234 -146.46561,-83.333172 -144.78658,-85.054215 -143.10754,-86.775257 26.421772,83.741774 28.111584,82.031315 29.801396,80.320856 -142.76182,-87.125207 -141.06129,-88.825015 -139.36077,-90.524823 28.012439,82.109058 29.723612,80.419968 31.434784,78.730878 -139.01067,-90.8704 -137.28892,-92.548705 -135.56717,-94.22701 29.623498,80.496459 31.35576,78.829005 33.088023,77.161551 -135.21276,-94.568161 -133.47005,-96.224698 -131.72735,-97.881234 31.254693,78.904231 33.007772,77.258677 34.760851,75.613122 -131.36868,-98.217905 -129.6053,-99.852412 -127.84191,-101.48692 32.905768,77.332627 34.679386,75.709232 36.453005,74.085837 -127.47904,-101.81906 -125.69526,-103.43127 -123.91148,-105.04349 34.576461,75.781895 36.370339,74.180915 38.164217,72.579936 -123.54446,-105.37104 -121.74056,-106.96072 -119.93666,-108.5504 36.266508,74.252279 38.080363,72.673968 39.894217,71.095656 -119.56555,-108.87331 -117.74182,-110.4402 -115.91808,-112.00708 37.975644,72.744021 39.809188,71.188627 41.642733,69.633233 -115.54295,-112.3253 -113.69967,-113.86915 -111.85639,-115.41299 39.703597,71.257359 41.556542,69.725129 43.409487,68.192898 -111.47729,-115.72647 -109.61475,-117.24703 -107.75222,-118.76759 41.450095,69.792528 43.322148,68.283703 45.1942,66.774877 -107.3692,-119.07629 -105.48771,-120.57332 -103.60621,-122.07035 43.214863,68.34976 45.105728,66.864578 46.996592,65.379396 -103.21935,-122.37421 -101.3192,-123.84748 -99.419036,-125.32076 44.997621,66.929281 46.906999,65.467977 48.816378,64.006673 -99.028389,-125.61973 -97.109867,-127.06901 -95.191345,-128.51829 46.798088,65.531317 48.725679,64.094121 50.653269,62.656926 -94.796972,-128.81233 -92.860389,-130.23738 -90.923807,-131.66244 48.61598,64.156088 50.561478,62.743228 52.506976,61.330368 -90.52577,-131.9515 -88.571433,-133.35211 -86.617097,-134.75272 50.45101,62.803811 52.414108,61.41551 54.377206,60.027209 -86.215459,-135.03675 -84.243676,-136.41269 -82.271894,-137.78863 52.302887,61.4747 54.283276,60.111177 56.263665,58.747654 -81.866718,-138.0676 -79.877801,-139.41865 -77.888884,-140.76971 54.17132,60.168964 56.168686,58.830435 58.166053,57.491905 -77.480236,-141.04356 -75.474498,-142.36952 -73.468761,-143.69547 56.056013,58.886811 58.070042,57.573486 60.084071,56.260161 -73.056703,-143.96417 -71.034462,-145.26481 -69.012221,-146.56546 57.956669,57.628442 59.987042,56.340529 62.017415,55.052616 -68.596819,-146.82896 -66.558394,-148.10409 -64.519969,-149.37922 59.872988,56.394056 61.919384,55.131758 63.965781,53.869461 -64.101289,-149.63747 -62.047001,-150.88689 -59.992714,-152.1363 61.804666,55.183848 63.866764,53.947365 65.928861,52.710882 -59.570821,-152.38928 -57.500996,-153.61278 -55.43117,-154.83629 63.7514,53.998009 65.828872,52.787536 67.906344,51.577063 -55.006132,-155.08394 -52.921095,-156.28134 -50.836058,-157.47873 65.712881,52.836726 67.8054,51.652455 69.897919,50.468183 -50.407942,-157.72103 -48.308023,-158.89213 -46.208105,-160.06323 67.688801,51.700184 69.796036,50.5423 71.903271,49.384417 -45.776977,-160.30012 -43.662508,-161.44474 -41.548039,-162.58936 69.678845,50.58856 71.800465,49.457248 73.922084,48.325935 -41.113969,-162.82082 -38.985284,-163.93878 -36.856598,-165.05674 71.682702,49.502031 73.81837,48.397468 75.954037,47.292906 -36.419654,-165.28273 -34.277088,-166.37385 -32.134523,-167.46497 73.700054,48.440769 75.849433,47.36313 77.998812,46.285492 -31.694773,-167.68545 -29.538666,-168.74956 -27.382558,-169.81368 75.730582,47.40494 77.893333,46.354396 80.056084,45.303851 -26.940073,-170.02861 -24.770764,-171.06555 -22.601455,-172.10248 77.773966,46.394709 79.949748,45.371425 82.125529,44.348141 -22.156303,-172.31184 -19.974135,-173.32143 -17.791968,-174.33103 79.829884,45.410235 82.018352,44.414372 84.20682,43.41851 -17.34422,-174.53477 -15.149538,-175.51686 -12.954856,-176.49896 81.89801,44.451673 84.098819,43.48339 86.299629,42.515107 -12.504584,-176.69706 -10.297734,-177.6515 -8.0908845,-178.60593 83.978018,43.519175 86.190821,42.578624 88.403624,41.638073 -7.6381586,-178.79837 -5.4194895,-179.725 -3.2008204,-180.65162 86.06958,42.612889 88.294027,41.700218 90.518475,40.787547 -2.7457121,-180.83835 -0.51557415,-181.73703 1.7145638,-182.6357 88.172365,41.732956 90.408105,40.84831 92.643846,39.963663 2.1719826,-182.8167 4.4132373,-183.68728 6.654492,-184.55786 90.286041,40.879517 92.532721,40.023035 94.779402,39.166553 7.114149,-184.73309 9.3661665,-185.57544 11.618184,-186.41779 92.410275,40.052706 94.66754,39.224523 96.924806,38.39634 12.080007,-186.58723 14.342431,-187.40121 16.604856,-188.2152 94.544731,39.252653 96.812225,38.4529 99.079719,37.653148 17.068771,-188.37882 19.341246,-189.16431 21.613721,-189.9498 96.689071,38.479485 98.966436,37.708289 101.2438,36.937093 22.079655,-190.10758 24.361821,-190.86446 26.643987,-191.62133 98.842958,37.733323 101.12983,36.990806 103.41671,36.248288 27.111868,-191.77324 29.403364,-192.50138 31.69486,-193.22951 101.00605,37.014287 103.30208,36.300565 105.5981,35.586843 32.164613,-193.37553 34.465078,-194.07481 36.765544,-194.7741 103.17801,36.322489 105.48282,35.637675 107.78764,34.952862 37.237094,-194.9142 39.546165,-195.58452 41.855236,-196.25484 105.35849,35.658038 107.67173,35.002241 109.98496,34.346444 42.32851,-196.38901 44.645821,-197.03026 c 2.317312,-0.64125 62.901329,232.0513 65.222619,231.424623 2.3213,-0.626677 -62.430384,-232.194093 -60.105197,-232.806173 2.325186,-0.61208 59.980387,232.823405 62.309377,232.225947 2.32899,-0.597458 -59.507694,-232.960257 -57.175,-233.543077 2.332695,-0.58281 57.04999,233.558739 59.3863,232.990594 C 116.62023,32.693509 57.708309,-200.42799 60.048143,-200.98144 62.387977,-201.5349 114.15872,33.275744 116.50198,32.737003 118.84525,32.198261 62.867395,-201.64512 65.213999,-202.16913 67.560603,-202.69314 116.37662,32.749518 118.72647,32.240265 121.07632,31.731011 68.041368,-202.79733 70.394371,-203.29181 72.747375,-203.78629 118.60095,32.251204 120.95702,31.771519 123.31308,31.291834 73.229411,-203.88443 75.588442,-204.3493 77.947473,-204.81417 120.83137,31.78088 123.19328,31.330839 125.55519,30.880798 78.430705,-204.90625 80.795391,-205.34144 83.160078,-205.77663 123.06753,31.338621 125.4349,30.918296 127.80228,30.49797 83.644428,-205.86263 86.014397,-206.26807 88.384365,-206.67351 125.30907,30.924497 127.68154,30.533953 130.05401,30.143409 88.869758,-206.75341 91.244634,-207.12904 c 2.374877,-0.37563 36.310996,237.667612 38.688186,237.306911 2.37719,-0.3607 -35.826951,-237.756341 -33.447542,-238.102101 2.379409,-0.34576 33.321592,238.105138 35.703122,237.774338 2.38154,-0.3308 -32.836466,-238.187778 -30.4529,-238.503608 2.38357,-0.31583 30.32692,238.505062 32.71242,238.204214 2.38551,-0.300847 -29.8408,-238.581594 -27.45345,-238.867444 2.38735,-0.28585 27.32746,238.867315 29.71656,238.596467 2.38909,-0.270847 -26.84042,-238.937737 -24.44967,-239.193567 2.39075,-0.25583 24.32369,239.191855 26.716,238.95105 2.39231,-0.240805 -23.8358,-239.25615 -21.44202,-239.48192 2.39378,-0.22576 21.31607,239.478624 23.71122,239.267901 2.39515,-0.210724 -20.82741,-239.536781 -18.43099,-239.732451 2.39643,-0.19567 18.30509,239.727573 20.7027,239.546963 2.39761,-0.18061 -17.81574,-239.779583 -15.41704,-239.945123 2.39869,-0.16554 15.29121,239.938663 17.6909,239.788196 2.39969,-0.150467 -14.80125,-239.984526 -12.40067,-240.119906 2.40059,-0.13539 12.27494,240.111866 14.67632,239.991566 2.40139,-0.120301 -11.78442,-240.151566 -9.38233,-240.256776 2.4021,-0.10521 9.25671,240.247156 11.65942,240.157041 2.40271,-0.09012 -8.76574,-240.280691 -6.36251,-240.355711 2.40323,-0.075 6.23702,240.344514 8.64067,240.284598 2.40366,-0.05992 -5.74567,-240.371868 -3.34169,-240.416678 2.40398,-0.0448 3.21635,240.403905 5.62057,240.374199 2.40421,-0.02971 -2.7247,-240.425089 -0.32035,-240.439689 2.40436,-0.0146 0.19518,240.425341 2.59958,240.425849 2.40439,5.07e-4 0.2967,-240.440349 2.70105,-240.424729 2.40435,0.0156 -2.82604,240.40881 -0.42183,240.439531 2.4042,0.03072 3.31807,-240.417631 5.72203,-240.371811 2.40396,0.0458 -5.8468,240.354322 -3.44318,240.415252 2.40363,0.06093 6.33891,-240.356962 8.7421,-240.280922 2.4032,0.076 -8.86664,240.261868 -6.46397,240.352997 2.40268,0.09113 9.35874,-240.258327 11.76079,-240.152097 2.40206,0.10622 -11.88508,240.131478 -9.48374,240.252793 2.40134,0.121314 12.37709,-240.121753 14.77762,-239.985353 2.40053,0.1364 -14.90164,239.963174 -12.50202,240.114654 2.39962,0.15148 15.3935,-239.947264 17.79212,-239.780714 2.39862,0.16656 -17.91586,239.756979 -15.51833,239.9386 2.39753,0.181622 18.40747,-239.73488 20.80381,-239.5382 2.39635,0.19668 -20.92723,239.512912 -18.53217,239.724647 2.39505,0.211735 21.41853,-239.484647 23.81221,-239.257867 2.39368,0.22678 -23.93531,239.23103 -21.5431,239.472844 2.3922,0.241815 24.42621,-239.196594 26.81685,-238.939754 2.39065,0.25684 -26.93961,238.911372 -24.55063,239.183228 2.38899,0.271856 27.43005,-238.870768 29.81727,-238.583898 2.38723,0.28686 -29.93965,238.553976 -27.55428,238.85583 2.38538,0.301855 30.42954,-238.50722 32.81297,-238.19038 2.38344,0.31684 -32.93496,238.158922 -30.55357,238.490728 2.38139,0.331805 33.42422,-238.106008 35.80349,-237.759248 2.37926,0.34676 -35.92509,237.72626 -33.54805,238.087964 2.37704,0.361703 36.41364,-237.667194 38.78835,-237.290564 2.37472,0.37663 -38.90952,237.25605 -36.53721,237.647595 2.3723,0.391545 39.39729,-237.190855 41.76709,-236.784415 2.36979,0.40645 -41.88782,236.748381 -39.52063,237.169706 2.3672,0.421325 42.37474,-236.677056 44.73924,-236.240866 2.3645,0.43619 -44.8595,236.203318 -42.49779,236.654356 2.36172,0.451038 45.34549,-236.125886 47.70432,-235.660026 2.35884,0.46587 -47.8241,235.62097 -45.46824,236.10165 2.35586,0.48068 48.30907,-235.53743 50.66187,-235.04196 2.35279,0.49547 -50.78115,235.001401 -48.43152,235.511647 2.34964,0.510246 51.26503,-234.911787 53.61141,-234.386787 2.34639,0.525 -53.73017,234.344733 -51.38713,234.884464 2.34303,0.539731 54.21289,-234.249034 56.55249,-233.694594 2.3396,0.55444 -56.67072,233.651051 -54.33465,234.220182 2.33607,0.569131 57.15219,-233.549302 59.48464,-232.965502 2.33245,0.5838 -59.60231,232.920477 -57.27358,233.518918 2.32874,0.598441 60.08247,-232.812688 62.4074,-232.199618 2.32493,0.61306 -62.52449,232.153117 -60.20346,232.780774 2.32103,0.627657 63.00326,-232.039304 65.3203,-231.397074 2.31704,0.64223 -65.4368,231.349106 -63.12384,232.00588 2.31296,0.656773 65.9141,-231.22928 68.22289,-230.55799 2.30878,0.6713 -68.33878,230.508561 -66.03426,231.194348 2.30453,0.685786 68.81453,-230.382748 71.1147,-229.682488 2.30017,0.70025 -71.22996,229.631607 -68.93423,230.346298 2.29572,0.714691 71.7041,-229.499828 73.99528,-228.770728 2.29119,0.7291 -74.10989,228.718403 -71.82333,229.461886 2.28656,0.743483 74.58234,-228.580676 76.86419,-227.822836 2.28184,0.75783 -76.97814,227.769075 -74.7011,228.541232 2.27704,0.772157 77.44881,-227.625422 79.72095,-226.838972 2.27215,0.78645 -79.83421,226.783783 -77.56705,227.584493 2.26716,0.800709 80.30304,-226.634223 82.56512,-225.819283 2.26208,0.81494 -82.67768,225.762675 -80.42076,226.591811 2.25692,0.829135 83.14459,-225.607241 85.39626,-224.763941 2.25166,0.8433 -85.5081,224.705923 -83.26178,225.563354 2.24632,0.85743 85.97302,-224.544624 88.21391,-223.673094 2.24088,0.87152 -88.32501,223.613675 -86.08964,224.499265 2.23537,0.885591 88.78787,-223.446555 91.01763,-222.546935 2.22975,0.89961 -91.12797,222.486126 -88.90391,223.399736 2.22406,0.91361 91.58869,-222.313206 93.80697,-221.385636 2.21828,0.92757 -93.91654,221.323444 -91.70414,222.26493 2.21241,0.941485 94.37506,-221.14474 96.58151,-220.18937 2.20645,0.95536 -96.69029,220.125806 -94.48989,221.095018 2.2004,0.969213 97.14653,-219.941358 99.34079,-218.958338 2.19427,0.98302 -99.44876,218.893413 -97.26071,219.890199 2.18804,0.996786 99.90264,-218.703249 102.08438,-217.692729 2.18174,1.01051 -102.19153,217.626452 -100.01618,218.650655 2.17535,1.024202 102.64299,-217.430595 104.81186,-216.392745 2.16887,1.03785 -104.91817,216.325126 -102.75586,217.376584 2.1623,1.051457 105.36712,-216.123614 107.52278,-215.058594 2.15566,1.06502 -107.62823,214.989645 -105.47931,216.068191 2.14892,1.078545 108.07463,-214.782501 110.21673,-213.690481 2.14211,1.09203 -110.3213,213.620212 -108.1861,214.725676 2.1352,1.105464 110.76506,-213.407476 112.89327,-212.288616 2.12821,1.11886 -112.99696,212.217039 -110.87582,213.349247 2.12115,1.132208 113.438,-211.998747 115.55199,-210.853237 2.11399,1.14552 -115.65476,210.780363 -113.54802,211.939136 2.10675,1.158773 116.09303,-210.556546 118.19246,-209.384556 2.09942,1.17199 -118.29431,209.310396 -116.20229,210.495551 2.09202,1.185154 118.72973,-209.081091 120.81426,-207.882811 2.08453,1.19827 -120.91517,207.807377 -118.83821,209.018726 2.07696,1.21135 121.34767,-207.572616 123.41698,-206.348246 2.06931,1.22438 -123.51694,206.27155 -121.45536,207.508903 2.06157,1.237353 123.94645,-206.031373 126.00021,-204.781083 2.05376,1.25028 -126.0992,204.703137 -124.05333,205.966298 2.04586,1.263162 126.52567,-204.457588 128.56355,-203.181598 2.03789,1.27599 -128.66155,203.102415 -126.63172,204.391185 2.02983,1.288769 129.0849,-202.851515 131.10659,-201.550015 2.02169,1.3015 -131.20359,201.469606 -129.19011,202.783781 2.01347,1.314175 131.62375,-201.213411 133.62893,-199.886611 2.00517,1.3268 -133.72491,199.804989 -131.72811,201.144362 1.99681,1.339373 134.14182,-199.543542 136.13016,-198.191642 1.98835,1.35189 -136.2251,198.108821 -134.24529,199.47318 1.97982,1.364359 136.6387,-197.84215 138.6099,-196.46538 1.9712,1.37677 -138.70379,196.381372 -136.74128,197.770502 1.96251,1.389129 139.114,-196.109522 141.06774,-194.708092 1.95375,1.40143 -141.16057,194.622911 -139.21567,196.036592 1.9449,1.413681 141.56733,-194.345922 143.50331,-192.920052 1.93598,1.42587 -143.59506,192.833711 -141.66808,194.27172 1.92698,1.438009 143.99831,-192.55164 145.91622,-191.10155 1.91791,1.45009 -146.00688,191.014063 -144.09812,192.476173 1.90876,1.46211 146.40655,-190.726953 148.30609,-189.252873 1.89954,1.47407 -148.39565,189.164254 -146.50541,190.650234 1.89024,1.48598 148.79168,-188.872144 150.67254,-187.374314 1.88087,1.49783 -150.76097,187.284577 -148.88956,188.794192 1.87142,1.509616 151.15331,-186.987502 153.0152,-185.466162 1.86189,1.52135 -153.1025,185.375321 -151.2502,186.908333 1.8523,1.533013 153.49106,-185.073343 155.33369,-183.528723 1.84263,1.54462 -155.41984,183.436792 -153.58696,184.992959 1.83289,1.556168 155.80459,-183.129959 157.62766,-181.562299 1.82308,1.56765 -157.71265,181.469292 -155.89946,183.048369 1.81319,1.579077 158.0935,-181.157649 159.89673,-179.567209 1.80323,1.59044 -159.98054,179.473142 -158.18734,181.074879 1.7932,1.601736 160.35745,-179.156739 162.14056,-177.543769 1.7831,1.61298 -162.22319,177.448655 -160.45025,179.072799 1.77293,1.624144 162.59608,-177.127529 164.35877,-175.492282 1.7627,1.635251 -164.4402,175.396138 -162.68781,177.042432 1.75238,1.646295 164.80903,-175.070359 166.55104,-173.413087 1.742,1.657273 -166.63125,173.315928 -164.89969,174.984113 1.73155,1.668184 166.99596,-172.98554 168.717,-171.306508 1.72105,1.679031 -168.79599,171.208348 -167.08553,172.89816 1.71046,1.689812 169.15652,-170.873404 170.85633,-169.172878 1.69981,1.700526 -170.93407,169.073733 -169.24498,170.784905 1.68909,1.711173 171.29037,-168.734284 172.96867,-167.012533 1.67831,1.721751 -173.04516,166.91242 -171.37771,168.644682 1.66746,1.732262 173.39717,-166.56852 175.05371,-164.825815 1.65653,1.742705 -175.12893,164.724748 -173.48338,166.477827 1.64556,1.753079 175.47658,-164.376453 177.11109,-162.61307 1.63451,1.763384 -177.18504,162.511065 -175.56164,164.284684 1.62339,1.773618 177.52828,-162.158429 179.1405,-160.374645 1.61222,1.783783 -179.21317,160.271719 -177.61219,162.065597 1.60098,1.793879 179.55196,-159.914797 181.14164,-158.110895 1.58968,1.803901 -181.213,158.007065 -179.63469,159.820919 1.57831,1.813855 181.54728,-157.645914 183.11416,-155.822179 1.56689,1.823736 -183.18421,155.71746 -181.62882,157.551005 1.55539,1.833544 183.51393,-155.352137 185.05777,-153.508856 1.54385,1.843281 -185.1265,153.403265 -183.59427,155.256209 1.53223,1.852945 185.4516,-153.033827 186.97216,-151.171292 1.52056,1.862535 -187.03956,151.064846 -185.53073,152.936899 1.50882,1.872052 187.35998,-150.691353 188.85702,-148.809857 1.49703,1.881495 -188.92308,148.702572 -187.4379,150.593436 1.48518,1.890865 189.23879,-148.325081 190.71206,-146.424922 1.47327,1.900159 -190.77676,146.316816 -189.31546,148.226194 1.46131,1.909378 191.08771,-145.935388 192.53699,-144.016866 1.44927,1.918522 -192.60033,143.907955 -191.16313,145.835544 1.43719,1.92759 192.90645,-143.522649 194.3315,-141.586067 1.42506,1.936583 -194.39347,141.476367 -192.98061,143.421867 1.41286,1.9455 194.69473,-141.087248 196.09534,-139.132911 1.4006,1.954337 -196.15592,139.022441 -194.76762,140.985541 1.3883,1.9631 196.45226,-138.629566 197.8282,-136.657784 1.37594,1.971783 -197.88739,136.546564 -196.52387,138.526954 1.36352,1.98039 198.17878,-136.149996 199.52983,-134.161079 1.35106,1.988917 -199.58762,134.049119 -198.24909,136.046489 1.33853,1.99737 199.874,-133.648923 201.19995,-131.643186 1.32596,2.005738 -201.25632,131.530516 -199.943,133.544536 1.31333,2.01403 201.53766,-131.12674 202.8383,-129.1045 1.30064,2.022241 -202.89325,128.99113 -201.60534,131.0215 1.28791,2.03038 203.16948,-128.583857 204.44461,-126.545432 1.27513,2.038426 -204.49814,126.431382 -203.23584,128.477782 1.2623,2.04639 204.76923,-126.020676 206.01865,-123.9663885 C 518.78419,-7.6305309 311.46404,114.16685 312.70052,116.22895 313.93701,118.29104 519.03717,-7.2086385 520.26067,-5.1388129 521.48417,-3.0689873 312.64988,116.11358 313.86035,118.19105 315.07082,120.26853 521.73183,-2.6439493 522.92922,-0.55891256 524.12662,1.5261242 313.81116,118.07506 314.99543,120.16758 316.1797,122.2601 524.36891,1.9542407 525.54002,4.0541593 526.71112,6.154078 314.9477,120.05098 316.10559,122.15822 317.26347,124.26545 526.94801,6.5852054 528.09263,8.6996743 529.23725,10.814143 316.05933,122.04103 317.19064,124.16265 318.32195,126.28427 529.46871,11.248213 530.58667,13.376899 531.70463,15.505584 317.14586,124.04488 318.25042,126.18055 319.35498,128.31622 531.93062,15.942529 533.02174,18.085094 534.11286,20.22766 318.20712,126.06224 319.28476,128.21162 320.3624,130.36099 534.33334,20.667409 535.39745,22.823517 536.46157,24.979624 319.24295,128.09276 320.29349,130.25552 321.34404,132.41827 536.6765,25.42211 537.71343,27.591419 538.75037,29.760728 320.25318,130.13615 321.27646,132.31193 c 1.02329,2.17578 217.68327,-102.106051 218.69286,-99.923883 1.00959,2.182168 -218.73167,99.804023 -217.7358,101.992483 0.99586,2.18847 218.94914,-99.362568 219.93123,-97.167886 0.9821,2.194682 -219.96854,97.047546 -219.00025,99.248356 0.96828,2.20081 220.18045,-96.603402 221.13489,-94.396552 0.95443,2.20685 -221.17068,94.275752 -220.23013,96.488552 0.94056,2.21281 221.37699,-93.828976 222.30362,-91.610307 0.92663,2.218669 -222.33788,91.489067 -221.42521,93.713517 0.91267,2.22445 222.53857,-91.03974 223.43725,-88.809602 0.89867,2.230138 -223.46999,88.687942 -222.58534,90.923682 0.88464,2.23574 223.66501,-88.236125 224.53559,-85.99487 0.87058,2.241255 -224.5668,85.8728 -223.71032,88.11948 0.85649,2.24668 224.75613,-85.418568 225.59848,-83.166551 0.84235,2.252018 -225.62815,83.044111 -224.79996,85.301371 0.82818,2.25727 225.81175,-82.587531 226.62573,-80.325106 0.81399,2.262425 -226.65386,80.202296 -225.85411,82.469796 0.79975,2.26749 226.83172,-79.743456 227.61721,-77.470981 0.78549,2.272474 -227.6438,77.347821 -226.8726,79.625191 0.7712,2.27736 227.81587,-76.886782 228.57274,-74.604616 0.75688,2.282165 -228.59778,74.481136 -227.85526,76.768016 0.74252,2.28687 228.76405,-74.01797 229.49218,-71.726473 0.72814,2.291496 -229.51566,71.602683 -228.80194,73.898713 0.71373,2.29603 229.6761,-71.137464 230.37538,-68.836999 0.69928,2.300465 -230.3973,68.712929 -229.71249,71.017749 0.68482,2.30481 230.55188,-68.245733 231.2222,-65.936662 0.67032,2.30907 -231.24256,65.812322 -230.58676,68.125562 0.65579,2.31324 231.39125,-65.343218 232.0325,-63.025906 0.64125,2.317312 -232.0513,62.901326 -231.42462,65.222616 0.62667,2.3213 232.19409,-62.430382 232.80617,-60.10519 0.61208,2.32518 -232.82341,59.98039 -232.22595,62.30937 0.59746,2.32899 232.96026,-59.50769 233.54308,-57.175 0.58281,2.3327 -233.55874,57.04999 -232.9906,59.3863 0.56815,2.33631 233.68965,-56.57561 234.2431,-54.23577 0.55346,2.33983 -234.25719,54.11057 -233.71844,56.45384 0.53874,2.34326 234.38212,-53.63459 234.90613,-51.28799 0.52401,2.34661 -234.91865,51.16262 -234.4094,53.51247 0.50926,2.34985 235.0376,-50.6851 235.53207,-48.3321 0.49448,2.35301 -235.54301,48.20659 -235.06332,50.56265 0.47968,2.35606 235.65594,-47.72761 236.12082,-45.36858 0.46487,2.35904 -236.13018,45.24294 -235.68014,47.60484 0.45004,2.36191 236.23708,-44.76257 236.67228,-42.39789 0.43519,2.36469 -236.68006,42.27214 -236.25974,44.63952 0.42033,2.36737 236.78092,-41.79048 237.18637,-39.42051 0.40544,2.36997 -237.19257,39.29467 -236.80202,41.66714 0.39054,2.37247 237.28736,-38.81178 237.66299,-36.4369 0.37563,2.37487 -237.66761,36.31099 -237.30691,38.68818 0.3607,2.37719 237.75634,-35.82695 238.1021,-33.44754 0.34575,2.37941 -238.10514,33.32159 -237.77434,35.70312 0.3308,2.38154 238.18777,-32.83646 238.5036,-30.4529 0.31583,2.38357 -238.50505,30.32692 -238.20421,32.71242 0.30085,2.38551 238.5816,-29.84079 238.86745,-27.45345 0.28585,2.38735 -238.86732,27.32746 -238.59647,29.71656 0.27085,2.3891 238.93774,-26.84042 239.19357,-24.44967 0.25583,2.39075 -239.19186,24.32369 -238.95105,26.716 0.2408,2.39231 239.25615,-23.83579 239.48191,-21.44202 0.22577,2.39378 -239.47862,21.31607 -239.26789,23.71122 0.21072,2.39515 239.53678,-20.82741 239.73245,-18.43099 0.19567,2.39643 -239.72757,18.3051 -239.54696,20.7027 0.1806,2.39761 239.77958,-17.81574 239.94512,-15.41704 0.16554,2.39869 -239.93867,15.29122 -239.7882,17.6909 0.15047,2.39969 239.98453,-14.80125 240.11991,-12.40066 0.13539,2.40058 -240.11187,12.27493 -239.99157,14.67632 0.1203,2.40139 240.15157,-11.78443 240.25678,-9.38233 0.10521,2.40209 -240.24716,9.2567 -240.15704,11.65941 0.0901,2.40271 240.28069,-8.76574 240.35571,-6.36251 0.075,2.40323 -240.34452,6.23702 -240.2846,8.64068 0.0599,2.40365 240.37187,-5.74568 240.41668,-3.3417 0.0448,2.40398 -240.40391,3.21635 -240.3742,5.62057 0.0297,2.40422 240.42509,-2.7247 240.43969,-0.32034 0.0146,2.40435 -240.42534,0.19517 -240.42585,2.59957 -5.1e-4,2.4044 240.44035,0.29671 240.42473,2.70106 -0.0156,2.40434 -240.40881,-2.82604 -240.43953,-0.42184 -0.0307,2.4042 240.41763,3.31807 240.37181,5.72203 -0.0458,2.40396 -240.35432,-5.8468 -240.41525,-3.44317 -0.0609,2.40362 240.35695,6.3389 240.28092,8.7421 -0.076,2.40319 -240.26187,-8.86664 -240.353,-6.46397 -0.0911,2.40267 240.25833,9.35874 240.1521,11.76079 -0.10622,2.40205 -240.13148,-11.88508 -240.25279,-9.48375 -0.12132,2.40134 240.12175,12.3771 239.98535,14.77762 -0.1364,2.40053 -239.96318,-14.90164 -240.11466,-12.50202 -0.15148,2.39962 239.94727,15.3935 239.78071,17.79212 -0.16655,2.39863 -239.75697,-17.91585 -239.93859,-15.51832 -0.18162,2.39753 239.73488,18.40747 239.5382,20.80381 -0.19668,2.39634 -239.51291,-20.92724 -239.72465,-18.53218 -0.21173,2.39506 239.48465,21.41853 239.25787,23.81221 -0.22678,2.39368 -239.23103,-23.93531 -239.47285,-21.5431 -0.24181,2.39221 239.19659,24.42621 238.93975,26.81686 -0.25684,2.39064 -238.91136,-26.93961 -239.18322,-24.55063 -0.27186,2.38898 238.87076,27.43004 238.5839,29.81726 -0.28686,2.38723 -238.55398,-29.93965 -238.85583,-27.55427 -0.30186,2.38537 238.50721,30.42953 238.19038,32.81297 -0.31684,2.38343 -238.15892,-32.93497 -238.49073,-30.55358 -0.33181,2.3814 238.10601,33.42423 237.75924,35.80349 -0.34676,2.37926 -237.72625,-35.92508 -238.08796,-33.54805 -0.3617,2.37704 237.6672,36.41364 237.29057,38.78836 -0.37663,2.37471 -237.25605,-38.90953 -237.6476,-36.53722 -0.39154,2.3723 237.19086,39.39729 236.78442,41.76709 -0.40645,2.3698 -236.74838,-41.88782 -237.16971,-39.52062 -0.42132,2.36719 236.67706,42.37473 236.24087,44.73923 -0.43619,2.36451 -236.20332,-44.8595 -236.65436,-42.49778 -0.45104,2.36171 236.12589,45.34548 235.66002,47.70431 -0.46586,2.35884 -235.62096,-47.8241 -236.10164,-45.46824 -0.48068,2.35587 235.53743,48.30907 235.04196,50.66187 -0.49547,2.35279 -235.0014,-50.78115 -235.51165,-48.43151 -0.51024,2.34963 234.91178,51.26502 234.38679,53.61141 -0.525,2.34638 -234.34473,-53.73018 -234.88447,-51.38714 -0.53973,2.34304 234.24904,54.21289 233.6946,56.55249 -0.55444,2.3396 -233.65105,-56.67072 -234.22018,-54.33465 -0.56913,2.33607 233.5493,57.1522 232.9655,59.48464 -0.5838,2.33245 -232.92048,-59.60231 -233.51892,-57.27357 -0.59844,2.32873 232.81268,60.08247 232.19962,62.40739 -0.61306,2.32493 -232.15312,-62.52449 -232.78078,-60.20346 -0.62765,2.32103 232.03931,63.00326 231.39708,65.3203 -0.64223,2.31704 -231.34911,-65.4368 -232.00588,-63.12384 -0.65678,2.31296 231.22928,65.9141 230.55799,68.22289 -0.6713,2.30879 -230.50856,-68.33878 -231.19435,-66.03426 -0.68579,2.30453 230.38275,68.81454 229.68249,71.11471 -0.70025,2.30017 -229.63161,-71.22996 -230.3463,-68.93424 -0.71469,2.29572 229.49983,71.7041 228.77073,73.99529 -0.7291,2.29119 -228.7184,-74.1099 -229.46189,-71.82334 -0.74348,2.28656 228.58067,74.58234 227.82284,76.86419 -0.75784,2.28184 -227.76908,-76.97813 -228.54123,-74.70109 -0.77216,2.27704 227.62542,77.4488 226.83897,79.72095 -0.78645,2.27214 -226.78378,-79.83421 -227.58449,-77.56706 -0.80071,2.26716 226.63422,80.30304 225.81928,82.56513 -0.81494,2.26208 -225.76268,-82.67768 -226.59181,-80.42077 -0.82914,2.25692 225.60723,83.1446 224.76393,85.39626 -0.84329,2.25166 -224.70591,-85.50809 -225.56335,-83.26178 -0.85743,2.24632 224.54463,85.97302 223.6731,88.21391 -0.87152,2.24089 -223.61368,-88.32501 -224.49927,-86.08964 -0.88559,2.23537 223.44656,88.78787 222.54694,91.01763 -0.89962,2.22976 -222.48613,-91.12797 -223.39974,-88.90391 -0.91361,2.22406 222.3132,91.5887 221.38564,93.80697 -0.92757,2.21828 -221.32345,-93.91654 -222.26493,-91.70414 -0.94149,2.21241 221.14474,94.37507 220.18937,96.58151 -0.95537,2.20645 -220.12581,-96.69029 -221.09502,-94.48989 -0.96921,2.20041 219.94136,97.14653 218.95834,99.3408 -0.98302,2.19426 -218.89341,-99.44877 -219.8902,-97.26072 -0.99679,2.18805 218.70325,99.90264 217.69273,102.08439 -1.01051,2.18174 -217.62645,-102.19154 -218.65066,-100.01619 -1.0242,2.17535 217.4306,102.64299 216.39275,104.81186 -1.03785,2.16887 -216.32513,-104.91817 -217.37659,-102.75586 -1.05145,2.16231 216.12362,105.36713 215.0586,107.52278 -1.06502,2.15566 -214.98965,-107.62823 -216.06819,-105.47931 -1.07855,2.14893 214.7825,108.07463 213.69047,110.21673 -1.09202,2.14211 -213.6202,-110.3213 -214.72567,-108.1861 -1.10546,2.1352 213.40748,110.76506 212.28862,112.89327 -1.11886,2.12821 -212.21704,-112.99695 -213.34925,-110.87581 -1.13221,2.12114 211.99875,113.438 210.85324,115.55198 -1.14552,2.11399 -210.78036,-115.65476 -211.93914,-113.54801 -1.15877,2.10674 210.55654,116.09303 209.38456,118.19245 -1.17199,2.09942 -209.3104,-118.29431 -210.49555,-116.20229 -1.18516,2.09202 209.08109,118.72973 207.88281,120.81426 -1.19828,2.08453 -207.80738,-120.91517 -209.01873,-118.83821 -1.21135,2.07696 207.57262,121.34767 206.34824,123.41698 -1.22437,2.06931 -206.27154,-123.51693 -207.5089,-121.45536 -1.23735,2.06158 206.03137,123.94646 204.78109,126.00022 -1.25028,2.05376 -204.70314,-126.0992 -205.9663,-124.05334 -1.26316,2.04586 204.45759,126.52567 203.18159,128.56356 -1.27599,2.03788 -203.10241,-128.66156 -204.39118,-126.63173 -1.28877,2.02983 202.85152,129.0849 201.55002,131.10659 -1.3015,2.0217 -201.46961,-131.20358 -202.78378,-129.19011 -1.31418,2.01348 201.21341,131.62375 199.88661,133.62893 -1.3268,2.00518 -199.80499,-133.7249 -201.14436,-131.7281 -1.33938,1.9968 199.54353,134.14181 198.19164,136.13016 -1.35189,1.98834 -198.10882,-136.22511 -199.47318,-134.24529 -1.36436,1.97981 197.84215,136.63869 196.46538,138.60989 -1.37677,1.9712 -196.38137,-138.70379 -197.7705,-136.74128 -1.38913,1.96252 196.10952,139.114 194.70809,141.06775 -1.40144,1.95374 -194.62291,-141.16058 -196.03659,-139.21568 -1.41368,1.9449 194.34592,141.56734 192.92005,143.50332 -1.42587,1.93598 -192.83371,-143.59507 -194.27172,-141.66809 -1.43801,1.92699 192.55164,143.99832 191.10155,145.91623 -1.45009,1.91791 -191.01407,-146.00689 -192.47618,-144.09813 -1.4621,1.90876 190.72695,146.40656 189.25288,148.30609 -1.47407,1.89954 -189.16426,-148.39564 -190.65024,-146.50541 -1.48598,1.89024 188.87214,148.79168 187.37432,150.67255 -1.49783,1.88086 -187.28458,-150.76098 -188.79419,-148.88957 -1.50962,1.87142 186.9875,151.15331 185.46616,153.0152 -1.52135,1.8619 -185.37532,-153.1025 -186.90833,-151.2502 -1.53302,1.8523 185.07334,153.49106 183.52872,155.33369 -1.54462,1.84263 -183.43679,-155.41984 -184.99296,-153.58695 -1.55617,1.83288 183.12995,155.80458 181.5623,157.62765 -1.56765,1.82308 -181.46929,-157.71264 -183.04837,-155.89946 -1.57908,1.81319 181.15765,158.09351 179.56721,159.89674 -1.59044,1.80323 -179.47314,-159.98055 -181.07488,-158.18735 -1.60174,1.7932 179.15674,160.35745 177.54376,162.14056 -1.61297,1.7831 -177.44865,-162.22318 -179.07279,-160.45025 -1.62414,1.77293 177.12753,162.59608 175.49228,164.35878 -1.63525,1.76269 -175.39614,-164.4402 -177.04243,-162.68782 -1.6463,1.75238 175.07036,164.80904 173.41309,166.55104 -1.65728,1.74201 -173.31593,-166.63125 -174.98412,-164.89969 -1.66818,1.73156 172.98554,166.99596 171.30651,168.71701 -1.67903,1.72104 -171.20835,-168.79599 -172.89816,-167.08553 -1.68981,1.71045 170.8734,169.15652 169.17288,170.85633 -1.70053,1.6998 -169.07373,-170.93408 -170.78491,-169.24499 -1.71117,1.68909 168.73429,171.29037 167.01254,172.96868 -1.72175,1.6783 -166.91242,-173.04517 -168.64468,-171.37771 -1.73227,1.66745 166.56852,173.39716 164.82581,175.0537 -1.7427,1.65654 -164.72475,-175.12893 -166.47783,-173.48338 -1.75308,1.64556 164.37646,175.47659 162.61307,177.11109 -1.76338,1.63451 -162.51106,-177.18504 -164.28468,-175.56164 -1.77362,1.62339 162.15843,177.52829 160.37464,179.14051 -1.78378,1.61222 -160.27172,-179.21317 -162.06559,-177.61219 -1.79388,1.60098 159.91479,179.55196 158.11089,181.14163 -1.8039,1.58968 -158.00706,-181.213 -159.82092,-179.63469 -1.81385,1.57831 157.64592,181.54728 155.82218,183.11417 -1.82373,1.56688 -155.71746,-183.18422 -157.551,-181.62883 -1.83355,1.5554 155.35213,183.51393 153.50885,185.05778 -1.84328,1.54384 -153.40326,-185.12651 -155.25621,-183.59428 -1.85294,1.53223 153.03383,185.4516 151.1713,186.97216 -1.86254,1.52056 -151.06485,-187.03956 -152.9369,-185.53073 -1.87205,1.50882 150.69135,187.35999 148.80985,188.85702 -1.88149,1.49703 -148.70257,-188.92308 -150.59343,-187.4379 -1.89087,1.48519 148.32508,189.23879 146.42492,190.71206 -1.90016,1.47328 -146.31682,-190.77676 -148.22619,-189.31546 -1.90938,1.46131 145.93538,191.08771 144.01686,192.53699 -1.91852,1.44928 -143.90795,-192.60033 -145.83554,-191.16313 -1.92759,1.43719 143.52265,192.90645 141.58606,194.3315 -1.93658,1.42506 -141.47636,-194.39347 -143.42186,-192.98061 -1.9455,1.41286 141.08725,194.69473 139.13291,196.09534 z"
       inkscape:transform-center-x="-0.52545969"
       inkscape:transform-center-y="-24.502895"
       transform="matrix(0.62074018,0,0,0.62074018,173.2002,459.62039)" />
    <path
       sodipodi:type="star"
       style="fill:#ffffff;fill-opacity:1;stroke:#ffffff"
       id="path2997"
       sodipodi:sides="3"
       sodipodi:cx="36.365494"
       sodipodi:cy="336.16403"
       sodipodi:r1="93.415901"
       sodipodi:r2="40.168839"
       sodipodi:arg1="1.194306"
       sodipodi:arg2="2.2415035"
       inkscape:flatsided="false"
       inkscape:rounded="0.01"
       inkscape:randomized="0"
       d="m 70.71068,423.03715 c -0.754797,0.29841 -58.675904,-54.90109 -59.311731,-55.40556 -0.635828,-0.50447 -67.559346,-44.35744 -67.440376,-45.16031 0.118969,-0.80288 76.883692,-23.36428 77.638489,-23.66269 0.754797,-0.29841 72.194339,-36.32939 72.830167,-35.82492 0.635827,0.50447 -18.207788,78.26537 -18.326758,79.06825 -0.118969,0.80287 -4.634994,80.68682 -5.389791,80.98523 z"
       inkscape:transform-center-x="-7.6188378"
       transform="matrix(-2.3625974,0.1062047,-0.33360847,-0.9317582,598.51124,896.16929)"
       inkscape:transform-center-y="-5.8290569" />
    <path
       sodipodi:type="arc"
       style="fill:#000000;fill-opacity:1;stroke:#000000"
       id="path3001"
       sodipodi:cx="446.99249"
       sodipodi:cy="528.59808"
       sodipodi:rx="134.85536"
       sodipodi:ry="134.85536"
       d="m 581.84785,528.59808 a 134.85536,134.85536 0 1 1 -269.71072,0 134.85536,134.85536 0 1 1 269.71072,0 z"
       transform="matrix(0.82835177,0,0,0.82835177,-99.041064,152.35223)" />
  </g>
</svg>
